<?xml version="1.0" standalone="no"?>
<!DOCTYPE svg PUBLIC "-//W3C//DTD SVG 1.1//EN" "http://www.w3.org/Graphics/SVG/1.1/DTD/svg11.dtd" >
<svg>
<metadata>
Created by FontForge 20090622 at Sat Aug  8 17:31:14 2015
 By deploy user
HTF Knockout   1994-7 The Hoefler Type Foundry, Inc. http://www.typography.com
</metadata>
<defs>
<font id="Knockout-HTF48-Featherweight" horiz-adv-x="307" >
  <font-face 
    font-family="Knockout HTFFeatherweight"
    font-weight="400"
    font-stretch="normal"
    units-per-em="1000"
    panose-1="0 0 0 0 0 0 0 0 0 0"
    ascent="750"
    descent="-250"
    x-height="480"
    cap-height="666"
    bbox="-221 -205 868 833"
    underline-thickness="61"
    underline-position="-51"
    unicode-range="U+000D-U+FB02"
  />
<missing-glyph horiz-adv-x="500" 
 />
    <glyph glyph-name=".notdef" horiz-adv-x="500" 
 />
    <glyph glyph-name=".null" horiz-adv-x="1000" 
 />
    <glyph glyph-name=".null" horiz-adv-x="1000" 
 />
    <glyph glyph-name="nonmarkingreturn" unicode="&#xd;" horiz-adv-x="250" 
 />
    <glyph glyph-name="space" unicode=" " horiz-adv-x="132" 
 />
    <glyph glyph-name="exclam" unicode="!" horiz-adv-x="166" 
d="M97 176h-29l-32 201v289h93v-289zM42 0v109h81v-109h-81z" />
    <glyph glyph-name="quotedbl" unicode="&#x22;" horiz-adv-x="218" 
d="M159 469h-49l43 197h69zM65 469h-47l29 197h68z" />
    <glyph glyph-name="numbersign" unicode="#" horiz-adv-x="476" 
d="M362 428l-30 -191h114v-50h-122l-28 -187h-56l28 187h-103l-27 -187h-56l28 187h-103v50h111l29 191h-115v51h123l28 187h56l-28 -187h103l28 187h56l-28 -187h101v-51h-109zM203 428l-29 -191h102l30 191h-103z" />
    <glyph glyph-name="dollar" unicode="$" horiz-adv-x="356" 
d="M142 745h74v-70q51 -11 81 -50.5t30 -99.5v-60h-91v61q0 29 -13 46t-38 17q-23 0 -37 -14t-14 -42q0 -24 5.5 -43t16 -37t25.5 -36.5l33 -41.5l42 -49t37.5 -52.5t26.5 -58t10 -65.5q0 -66 -31.5 -106.5t-82.5 -51.5v-72h-74v71q-54 11 -84 50t-30 100v59h92v-59
q0 -66 56 -66q27 0 41.5 16.5t14.5 45.5q0 44 -21 79t-63 82l-39.5 45.5t-37 52t-27 57.5t-10.5 61q0 58 27 101.5t81 56.5v73z" />
    <glyph glyph-name="percent" unicode="%" horiz-adv-x="496" 
d="M202 432q0 -45 -25.5 -69.5t-63.5 -24.5t-63 24.5t-25 69.5v152q0 45 25 69.5t63 24.5t63.5 -24.5t25.5 -69.5v-152zM82 -20l-36 26l370 679l36 -27zM472 80q0 -45 -25 -69.5t-63 -24.5t-63 24.5t-25 69.5v153q0 45 25 69t63 24t63 -24t25 -69v-153zM143 597
q0 13 -8 21.5t-22 8.5q-12 0 -20 -8.5t-8 -21.5v-178q0 -13 8 -21.5t20 -8.5q14 0 22 8.5t8 21.5v178zM414 246q0 13 -8.5 21t-21.5 8t-21 -8t-8 -21v-179q0 -13 8 -21t21 -8t21.5 8t8.5 21v179z" />
    <glyph glyph-name="ampersand" unicode="&#x26;" horiz-adv-x="475" 
d="M466 96q0 -54 -22.5 -81t-63.5 -27q-25 0 -48 13t-43 34q-24 -23 -54.5 -35t-63.5 -12q-32 0 -59 12.5t-46.5 35t-30 53t-10.5 65.5q0 69 30.5 119.5t78.5 88.5q-14 36 -23 75t-9 74q0 78 37 122.5t100 44.5q59 0 88 -40.5t29 -101.5q0 -59 -30.5 -106t-85.5 -92l13 -40
l14.5 -43.5t15.5 -41.5t15 -34q19 35 29.5 80.5t10.5 81.5h78q0 -28 -5.5 -59t-14.5 -62.5t-22 -61t-29 -54.5q9 -13 19.5 -20.5t22.5 -7.5q26 0 26 34v42h53v-56zM272 531q0 26 -8 41t-27 15q-20 0 -31.5 -18.5t-11.5 -51.5q0 -21 5 -48t13 -56q32 28 46 60.5t14 57.5z
M235 99q-20 32 -38.5 80.5t-31.5 91.5q-20 -19 -31 -46.5t-11 -59.5q0 -42 17.5 -64t49.5 -22q27 0 45 20z" />
    <glyph glyph-name="quotesingle" unicode="'" horiz-adv-x="145" 
d="M79 469h-51l35 197h86z" />
    <glyph glyph-name="parenleft" unicode="(" horiz-adv-x="268" 
d="M241 -148q-83 75 -127 185.5t-44 266.5t44 266.5t127 185.5l26 -26q-27 -34 -47.5 -74.5t-34.5 -92t-21 -115t-7 -144.5t7 -144.5t21 -115t34.5 -92t47.5 -74.5z" />
    <glyph glyph-name="parenright" unicode=")" horiz-adv-x="268" 
d="M198 304q0 -156 -44 -266.5t-126 -185.5l-26 26q26 34 46.5 74.5t34.5 92t21.5 115t7.5 144.5t-7.5 144.5t-21.5 115t-34.5 92t-46.5 74.5l26 26q82 -75 126 -185.5t44 -266.5z" />
    <glyph glyph-name="asterisk" unicode="*" horiz-adv-x="262" 
d="M226 478q-3 -5 -7.5 -4.5t-8.5 2.5l-29 19.5t-34 27.5q5 -22 7 -43.5t2 -35.5q0 -4 -2 -8t-7 -4h-30q-5 0 -7 4t-2 8q0 16 2 36t7 43q-17 -15 -35 -28t-29 -19q-3 -2 -8 -2.5t-7 3.5l-15 26q-2 4 0.5 8t5.5 6q14 8 31.5 16t40.5 15q-21 7 -41 16t-31 16q-4 2 -6.5 5.5
t-0.5 8.5l15 26q2 4 7 3.5t9 -2.5q13 -8 29 -19t34 -27q-5 22 -7.5 43.5t-2.5 34.5q0 5 2.5 8.5t7.5 3.5h30q5 0 7 -3.5t2 -8.5q0 -14 -2 -34.5t-7 -43.5q17 15 34.5 27.5t29.5 19.5q4 2 8.5 2.5t6.5 -4.5l15 -26q2 -4 0 -7.5t-6 -5.5q-13 -8 -31.5 -16.5t-40.5 -15.5
q22 -7 41 -15.5t31 -15.5q4 -2 6 -6t0 -9z" />
    <glyph glyph-name="plus" unicode="+" horiz-adv-x="302" 
d="M187 304v-92h-72v92h-86v72h86v91h72v-91h86v-72h-86z" />
    <glyph glyph-name="comma" unicode="," horiz-adv-x="148" 
d="M115 11q0 -42 -22 -69.5t-67 -27.5v26q20 0 32.5 14.5t12.5 45.5h-39v118h83v-107z" />
    <glyph glyph-name="hyphen" unicode="-" horiz-adv-x="216" 
d="M19 271v75h178v-75h-178z" />
    <glyph glyph-name="period" unicode="." horiz-adv-x="148" 
d="M32 0v118h83v-118h-83z" />
    <glyph glyph-name="slash" unicode="/" horiz-adv-x="233" 
d="M55 -64h-59l181 793h59z" />
    <glyph glyph-name="zero" unicode="0" horiz-adv-x="369" 
d="M334 140q0 -69 -40.5 -110.5t-109.5 -41.5q-68 0 -109 41.5t-41 110.5v386q0 69 41 110.5t109 41.5q69 0 109.5 -41.5t40.5 -110.5v-386zM236 535q0 20 -14 34.5t-38 14.5q-23 0 -37 -14.5t-14 -34.5v-404q0 -20 14 -34.5t37 -14.5q24 0 38 14.5t14 34.5v404z" />
    <glyph glyph-name="one" unicode="1" horiz-adv-x="246" 
d="M79 0v534h-57v77h34q26 0 38 15t15 40h69v-666h-99z" />
    <glyph glyph-name="two" unicode="2" horiz-adv-x="331" 
d="M311 520q0 -65 -26.5 -122t-82.5 -125q-43 -67 -59 -108t-16 -71h179v-94h-287v29q0 34 5 64.5t17.5 64.5t35.5 75t59 96q23 32 38.5 57t25.5 48.5t14.5 46t4.5 47.5q0 59 -51 59q-25 0 -37.5 -15.5t-12.5 -42.5v-77h-89v82q0 28 8.5 54t26 46t43 32t59.5 12
q40 0 67.5 -12.5t45 -33.5t25 -50t7.5 -62z" />
    <glyph glyph-name="three" unicode="3" horiz-adv-x="335" 
d="M308 130q0 -63 -39.5 -102.5t-106.5 -39.5q-34 0 -60 11.5t-43 30.5t-25.5 44.5t-8.5 52.5v73h89v-65q0 -55 48 -55q25 0 37 13.5t12 37.5v130q0 16 -8.5 26t-29.5 10h-46v79h46q21 0 29.5 10t8.5 27v121q0 24 -12 38t-37 14q-48 0 -48 -55v-66h-89v73q0 28 8.5 53
t25.5 44.5t42.5 31t60.5 11.5q67 0 106.5 -39.5t39.5 -102.5v-103q0 -36 -17.5 -61t-48.5 -33q30 -11 48 -33.5t18 -59.5v-116z" />
    <glyph glyph-name="four" unicode="4" horiz-adv-x="331" 
d="M275 138v-138h-92v138h-173v75l182 453h83v-443h45v-85h-45zM183 439l-83 -216h83v216z" />
    <glyph glyph-name="five" unicode="5" horiz-adv-x="336" 
d="M313 666q-3 -53 -18 -73t-48 -20h-115l-9 -177q14 20 37.5 31t55.5 11q44 0 70 -29.5t26 -76.5v-200q0 -66 -39.5 -105t-108.5 -39q-34 0 -59 11.5t-42 31t-25.5 44.5t-8.5 52v67h88v-59q0 -25 13 -40t36 -15q49 0 49 53v183q0 20 -11.5 32.5t-29.5 12.5q-22 0 -35.5 -14
t-17.5 -33l-87 12l16 340h263z" />
    <glyph glyph-name="six" unicode="6" horiz-adv-x="353" 
d="M326 139q0 -67 -38.5 -109t-107.5 -42q-68 0 -107 42t-39 109v386q0 69 39.5 111t108.5 42q34 0 59.5 -12t43 -31.5t26.5 -44.5t9 -52v-67h-87v60q0 55 -52 55q-25 0 -37.5 -14.5t-12.5 -40.5v-169q14 17 36.5 29.5t55.5 12.5q50 0 76.5 -30t26.5 -77v-158zM230 282
q0 20 -11.5 33t-37.5 13q-24 0 -37 -13t-13 -33v-152q0 -22 13 -36t36 -14t36.5 13.5t13.5 33.5v155z" />
    <glyph glyph-name="seven" unicode="7" horiz-adv-x="320" 
d="M311 616q-33 -84 -59 -160t-44 -149.5t-28 -148.5t-12 -158h-108q3 74 17 150.5t34.5 150.5t46.5 142.5t53 126.5h-190v96h290v-50z" />
    <glyph glyph-name="eight" unicode="8" horiz-adv-x="359" 
d="M327 130q0 -64 -39.5 -103t-108.5 -39q-68 0 -107.5 39t-39.5 103v109q0 35 14.5 60t38.5 37q-24 12 -38 37t-14 60v103q0 63 39 102.5t107 39.5q69 0 108 -39.5t39 -102.5v-103q0 -35 -14.5 -60t-38.5 -37q24 -12 39 -37t15 -60v-109zM231 534q0 24 -14.5 38t-37.5 14
q-22 0 -36.5 -14t-14.5 -38v-120q0 -19 13 -33.5t38 -14.5q26 0 39 14.5t13 33.5v120zM231 257q0 20 -13 34t-39 14q-25 0 -38 -14t-13 -34v-125q0 -24 14.5 -38t36.5 -14q23 0 37.5 14t14.5 38v125z" />
    <glyph glyph-name="nine" unicode="9" horiz-adv-x="360" 
d="M326 139q0 -68 -41 -109.5t-109 -41.5q-34 0 -60.5 11.5t-44.5 30.5t-27.5 44t-9.5 52v62h87v-53q0 -55 55 -55q28 0 40.5 15t12.5 39v162q-14 -18 -35 -30t-55 -12q-51 0 -78.5 31t-27.5 79v163q0 67 38.5 109t107.5 42t108 -42t39 -110v-387zM229 537q0 20 -12.5 34.5
t-37.5 14.5q-24 0 -37 -13.5t-13 -33.5v-164q0 -20 12.5 -33t37.5 -13q24 0 37 13.5t13 32.5v162z" />
    <glyph glyph-name="colon" unicode=":" horiz-adv-x="148" 
d="M32 315v118h83v-118h-83zM32 0v118h83v-118h-83z" />
    <glyph glyph-name="semicolon" unicode=";" horiz-adv-x="148" 
d="M32 315v118h83v-118h-83zM115 11q0 -42 -22 -69.5t-67 -27.5v26q20 0 32.5 14.5t12.5 45.5h-39v118h83v-107z" />
    <glyph glyph-name="less" unicode="&#x3c;" horiz-adv-x="423" 
d="M51 322v23l301 196v-89l-180 -118l180 -120v-89z" />
    <glyph glyph-name="equal" unicode="=" horiz-adv-x="288" 
d="M21 375v75h245v-75h-245zM21 229v76h245v-76h-245z" />
    <glyph glyph-name="greater" unicode="&#x3e;" horiz-adv-x="423" 
d="M71 126v89l180 118l-180 119v89l301 -197v-22z" />
    <glyph glyph-name="question" unicode="?" horiz-adv-x="309" 
d="M294 524q0 -51 -20.5 -104t-62.5 -105q-25 -32 -34 -63t-9 -67h-69q0 28 3.5 51.5t11 47.5t21 51l32.5 63q17 32 24.5 63t7.5 54q0 39 -11.5 55t-36.5 16t-36.5 -16t-11.5 -45v-71h-87v79q0 62 33 103.5t102 41.5q39 0 66 -12t44 -33t25 -49t8 -60zM92 0v109h81v-109h-81
z" />
    <glyph glyph-name="at" unicode="@" horiz-adv-x="530" 
d="M510 330q0 -38 -9.5 -73t-27.5 -62t-44.5 -43t-61.5 -16q-34 0 -53 19t-17 53q-14 -30 -36.5 -47t-47.5 -17q-32 0 -52.5 24.5t-20.5 69.5q0 31 10 64t28 60t42.5 44.5t52.5 17.5q23 0 37 -12.5t16 -35.5l13 42h64l-50 -173q-9 -32 -2.5 -50t30.5 -18q36 0 60.5 42
t24.5 112q0 48 -14.5 87t-40 67t-60.5 43t-77 15q-45 0 -83 -20t-66 -55.5t-43.5 -83t-15.5 -102.5q0 -57 15.5 -103.5t43.5 -80t66 -52t83 -18.5t80 15t60 40l25 -30q-30 -30 -72 -47.5t-93 -17.5q-53 0 -99 21t-80.5 59t-54 92.5t-19.5 121.5q0 65 19.5 120.5t54 96
t80.5 63t99 22.5q62 0 106.5 -23.5t73 -60.5t42.5 -82t14 -88zM314 339q0 18 -6.5 29.5t-22.5 11.5q-18 0 -33 -14t-26 -35t-17 -45t-6 -44q0 -50 34 -50q20 0 34 18.5t22 48.5z" />
    <glyph glyph-name="A" unicode="A" horiz-adv-x="347" 
d="M235 0l-17 130h-97l-20 -130h-97l111 666h117l111 -666h-108zM173 491l-39 -272h72z" />
    <glyph glyph-name="B" unicode="B" horiz-adv-x="367" 
d="M339 129q0 -68 -36.5 -98.5t-91.5 -30.5h-174v666h172q56 0 92 -30.5t36 -98.5v-97q0 -38 -15.5 -63.5t-50.5 -36.5q37 -12 52.5 -37.5t15.5 -62.5v-111zM235 532q0 43 -37 43h-54v-198h50q41 0 41 46v109zM236 249q0 47 -41 47h-51v-205h56q36 0 36 43v115z" />
    <glyph glyph-name="C" unicode="C" horiz-adv-x="365" 
d="M342 141q0 -67 -38.5 -110t-112.5 -43q-36 0 -66 12t-51 33.5t-32.5 50.5t-11.5 63v372q0 34 11.5 63t32.5 50.5t51 33.5t66 12q74 0 112.5 -43t38.5 -110v-96h-94v98q0 24 -13.5 39.5t-41.5 15.5t-41.5 -15.5t-13.5 -38.5v-390q0 -23 13.5 -38.5t41.5 -15.5t41.5 15.5
t13.5 39.5v99h94v-97z" />
    <glyph glyph-name="D" unicode="D" horiz-adv-x="382" 
d="M351 155q0 -75 -40 -115t-112 -40h-162v666h162q72 0 112 -42t40 -117v-352zM245 508q0 63 -53 63h-49v-477h49q53 0 53 63v351z" />
    <glyph glyph-name="E" unicode="E" horiz-adv-x="323" 
d="M37 0v666h266v-94h-160v-184h111v-88h-111v-203h160v-97h-266z" />
    <glyph glyph-name="F" unicode="F" horiz-adv-x="308" 
d="M143 574v-192h115v-91h-115v-291h-106v666h259v-92h-153z" />
    <glyph glyph-name="G" unicode="G" horiz-adv-x="375" 
d="M291 0l-16 45q-14 -29 -41 -43t-61 -14q-66 0 -104.5 42.5t-38.5 110.5v384q0 31 11 59t32 49t50.5 33t66.5 12t65.5 -12t48 -32.5t29.5 -48.5t10 -60v-89h-100v95q0 21 -13 36t-40 15q-26 0 -39.5 -15.5t-13.5 -36.5v-396q0 -22 14 -37.5t40 -15.5q27 0 40.5 15.5
t13.5 37.5v119h-52v80h155v-333h-57z" />
    <glyph glyph-name="H" unicode="H" horiz-adv-x="398" 
d="M255 0v280h-112v-280h-106v666h106v-289h112v289h106v-666h-106z" />
    <glyph glyph-name="I" unicode="I" horiz-adv-x="181" 
d="M37 0v666h106v-666h-106z" />
    <glyph glyph-name="J" unicode="J" horiz-adv-x="350" 
d="M316 142q0 -69 -39.5 -111.5t-110.5 -42.5q-69 0 -109.5 40.5t-40.5 109.5v127h101v-129q0 -52 47 -52q46 0 46 52v530h106v-524z" />
    <glyph glyph-name="K" unicode="K" horiz-adv-x="369" 
d="M253 0l-74 277l-36 -96v-181h-106v666h106v-313l110 313h105l-107 -283l111 -383h-109z" />
    <glyph glyph-name="L" unicode="L" 
d="M37 0v666h106v-570h153v-96h-259z" />
    <glyph glyph-name="M" unicode="M" horiz-adv-x="510" 
d="M373 0v495l-21 -140l-62 -355h-80l-59 355l-20 140v-495h-94v666h143l58 -337l18 -129l19 129l57 337h141v-666h-100z" />
    <glyph glyph-name="N" unicode="N" horiz-adv-x="400" 
d="M281 0l-112 302l-37 102v-404h-96v666h94l104 -305l34 -103v408h95v-666h-82z" />
    <glyph glyph-name="O" unicode="O" horiz-adv-x="380" 
d="M349 146q0 -70 -43.5 -114t-115.5 -44t-115.5 44t-43.5 114v374q0 35 11.5 64t32 50t50 32.5t65.5 11.5t65.5 -11.5t50 -32.5t32 -50t11.5 -64v-374zM242 528q0 24 -13.5 39t-38.5 15t-38.5 -15t-13.5 -39v-390q0 -24 13.5 -39t38.5 -15t38.5 15t13.5 39v390z" />
    <glyph glyph-name="P" unicode="P" horiz-adv-x="357" 
d="M337 397q0 -69 -36.5 -101.5t-93.5 -32.5h-64v-263h-106v666h170q57 0 93.5 -32.5t36.5 -102.5v-134zM234 531q0 44 -36 44h-55v-227h55q36 0 36 44v139z" />
    <glyph glyph-name="Q" unicode="Q" horiz-adv-x="381" 
d="M382 0q-9 -6 -20 -9t-29 -3t-34 6.5t-26 17.5q-17 -11 -38.5 -17.5t-48.5 -6.5q-35 0 -63.5 11.5t-49 32.5t-31.5 49.5t-11 62.5v378q0 33 11.5 61.5t32 49.5t50 33t65.5 12t65.5 -12t50 -33t32 -49.5t11.5 -61.5v-379q0 -37 -14 -63q7 -7 17 -10t30 -3v-67zM241 531
q0 21 -13 36t-38 15t-38.5 -15t-13.5 -36v-396q0 -21 13.5 -36t38.5 -15q8 0 16 1.5t14 6.5l-25 23l46 47v369z" />
    <glyph glyph-name="R" unicode="R" horiz-adv-x="372" 
d="M295 -3q-31 0 -44 26.5t-13 65.5v143q0 20 -10.5 34.5t-32.5 14.5h-52v-281h-106v666h170q56 0 93.5 -31.5t37.5 -99.5v-118q0 -34 -15.5 -58t-47.5 -36q32 -11 48.5 -36t16.5 -56v-136q0 -23 5 -39t15 -29v-30h-65zM234 532q0 43 -36 43h-55v-211h51q40 0 40 47v121z
" />
    <glyph glyph-name="S" unicode="S" horiz-adv-x="353" 
d="M332 152q0 -40 -12 -70.5t-33 -51.5t-49.5 -31.5t-61.5 -10.5q-72 0 -114 41t-42 112v59h97v-57q0 -32 14 -49t42 -17q29 0 42.5 16t13.5 44q0 44 -21.5 79.5t-63.5 80.5q-21 21 -42 45.5t-38 52.5t-28 58t-11 62q0 34 9.5 63.5t29 51.5t48.5 35t68 13q67 0 107 -42
t40 -111v-60h-96v60q0 28 -12.5 45t-38.5 17q-23 0 -37.5 -14t-14.5 -40q0 -24 5.5 -43.5t17 -37.5t28.5 -37.5l40 -44.5q49 -51 81 -103t32 -115z" />
    <glyph glyph-name="T" unicode="T" horiz-adv-x="327" 
d="M217 569v-569h-106v569h-103v97h310v-97h-101z" />
    <glyph glyph-name="U" unicode="U" horiz-adv-x="382" 
d="M347 138q0 -34 -11.5 -61.5t-32 -47t-49 -30.5t-62.5 -11t-62.5 11t-49.5 30.5t-33 47t-12 61.5v528h107v-530q0 -53 50 -53q52 0 52 53v530h103v-528z" />
    <glyph glyph-name="V" unicode="V" horiz-adv-x="354" 
d="M228 0h-103l-120 666h109l65 -466l69 466h102z" />
    <glyph glyph-name="W" unicode="W" horiz-adv-x="513" 
d="M405 0h-94l-55 396l-61 -396h-93l-97 666h105l48 -445l63 445h82l56 -445l54 445h98z" />
    <glyph glyph-name="X" unicode="X" horiz-adv-x="359" 
d="M242 0l-65 232l-70 -232h-103l114 333l-107 333h110l60 -237l68 237h102l-110 -321l110 -345h-109z" />
    <glyph glyph-name="Y" unicode="Y" horiz-adv-x="349" 
d="M225 268v-268h-106v268l-120 398h108l71 -279l69 279h105z" />
    <glyph glyph-name="Z" unicode="Z" horiz-adv-x="328" 
d="M135 96h171v-96h-295v37l181 534h-170v95h292v-37z" />
    <glyph glyph-name="bracketleft" unicode="[" horiz-adv-x="246" 
d="M80 -133v874h171v-64h-100v-746h100v-64h-171z" />
    <glyph glyph-name="backslash" unicode="\" horiz-adv-x="235" 
d="M180 -64l-182 793h59l181 -793h-58z" />
    <glyph glyph-name="bracketright" unicode="]" horiz-adv-x="246" 
d="M-3 -133v64h101v746h-101v64h171v-874h-171z" />
    <glyph glyph-name="asciicircum" unicode="^" horiz-adv-x="241" 
d="M231 548q-9 -3 -19.5 -5t-19.5 -2q-27 0 -46.5 17.5t-27.5 53.5q-8 -36 -27.5 -53.5t-47.5 -17.5q-8 0 -16.5 2t-17.5 5v26q23 0 45 22t33 70h66q11 -48 33 -70t45 -22v-26z" />
    <glyph glyph-name="underscore" unicode="_" horiz-adv-x="298" 
d="M0 -76v76h298v-76h-298z" />
    <glyph glyph-name="grave" unicode="`" horiz-adv-x="156" 
d="M81 535l-70 132h86l35 -132h-51z" />
    <glyph glyph-name="a" unicode="a" horiz-adv-x="301" 
d="M263 -8q-23 0 -40 12.5t-25 39.5q-14 -26 -36 -39t-50 -13q-42 0 -68 30.5t-26 86.5v23q0 33 12 58t33.5 44.5t51 34t63.5 27.5v74q0 38 -33 38q-18 0 -25 -10t-7 -30v-42h-81v38q0 54 29 88.5t88 34.5t87 -36.5t28 -93.5v-274q0 -23 20 -24v-67h-21zM178 228
q-75 -25 -75 -83v-38q0 -18 8 -30t25 -12q18 0 30 13.5t12 33.5v116z" />
    <glyph glyph-name="b" unicode="b" horiz-adv-x="314" 
d="M285 105q0 -50 -24 -81.5t-68 -31.5q-26 0 -48 13t-34 42l-9 -47h-68v666h89v-233q12 25 32.5 39.5t46.5 14.5q38 0 60.5 -31.5t22.5 -78.5v-272zM198 360q0 48 -37 48q-17 0 -27.5 -12.5t-10.5 -33.5v-247q0 -22 11 -34t26 -12q17 0 27.5 12t10.5 35v244z" />
    <glyph glyph-name="c" unicode="c" horiz-adv-x="291" 
d="M269 129q0 -64 -30.5 -100.5t-86.5 -36.5q-54 0 -88.5 36.5t-34.5 100.5v220q0 63 34.5 100.5t88.5 37.5q56 0 86.5 -37t30.5 -100v-46h-75v60q0 20 -10 32.5t-29 12.5q-18 0 -28.5 -12.5t-10.5 -34.5v-246q0 -22 10.5 -34t28.5 -12q19 0 29 12.5t10 32.5v59h75v-45z" />
    <glyph glyph-name="d" unicode="d" horiz-adv-x="314" 
d="M209 0l-6 47q-12 -29 -33.5 -42t-47.5 -13q-45 0 -69 31.5t-24 81.5v269q0 50 24.5 81.5t62.5 31.5q26 0 43.5 -10.5t31.5 -31.5v221h89v-666h-71zM191 363q0 21 -10 33.5t-27 12.5t-27.5 -12.5t-10.5 -35.5v-245q0 -23 10.5 -35t27.5 -12q15 0 26 12t11 34v248z" />
    <glyph glyph-name="e" unicode="e" horiz-adv-x="298" 
d="M272 127q0 -61 -32 -98t-87 -37q-54 0 -89 37t-35 99v223q0 61 35 98.5t89 37.5q55 0 87 -37.5t32 -98.5v-123h-156v-114q0 -20 9.5 -32t28.5 -12q20 0 29 12t9 32v59h80v-46zM191 364q0 20 -9 32.5t-28 12.5q-18 0 -28 -12.5t-10 -32.5v-85h75v85z" />
    <glyph glyph-name="f" unicode="f" horiz-adv-x="208" 
d="M148 399v-399h-90v399h-44v78h44v46q0 68 28.5 105.5t92.5 37.5h24v-75h-14q-25 0 -34.5 -13t-9.5 -37v-64h55v-78h-52z" />
    <glyph glyph-name="g" unicode="g" horiz-adv-x="306" 
d="M311 493q0 -29 -12.5 -43t-30.5 -14q-13 0 -27 7q35 -37 35 -85v-62q0 -56 -34 -92t-89 -36q-5 0 -13 0.5t-12 2.5q-14 0 -22 -10t-8 -23q0 -15 13.5 -24t51.5 -9q66 0 98 -29.5t32 -81.5v-38q0 -60 -36 -94t-100 -34q-60 0 -98 29.5t-38 83.5v35q0 24 13 43t37 29
q-23 8 -35 27t-12 40q0 25 18 46.5t44 25.5q-28 11 -41.5 43.5t-13.5 69.5v59q0 28 9.5 51.5t26 40.5t38.5 26.5t48 9.5q18 0 29 -3t17 -3q26 0 35 13.5t9 34.5h65q2 -13 2.5 -20.5t0.5 -15.5zM192 369q0 19 -10.5 31t-28.5 12t-28 -12t-10 -31v-87q0 -18 10 -30.5t28 -12.5
t28.5 12.5t10.5 30.5v87zM213 -10q0 18 -12.5 30t-42.5 12q-28 0 -41 -12t-13 -30v-43q0 -18 13.5 -30.5t40.5 -12.5q29 0 42 13t13 31v42z" />
    <glyph glyph-name="h" unicode="h" horiz-adv-x="319" 
d="M198 0v367q0 19 -9.5 30.5t-25.5 11.5q-18 0 -29 -18.5t-11 -35.5v-355h-89v666h89v-240q12 29 34 45t48 16q38 0 60 -28.5t22 -76.5v-382h-89z" />
    <glyph glyph-name="i" unicode="i" horiz-adv-x="158" 
d="M36 541v93h85v-93h-85zM34 0v480h89v-480h-89z" />
    <glyph glyph-name="j" unicode="j" horiz-adv-x="157" 
d="M36 541v93h85v-93h-85zM123 -29q0 -66 -26.5 -101.5t-90.5 -35.5h-23v74h10q24 0 32.5 10.5t8.5 32.5v529h89v-509z" />
    <glyph glyph-name="k" unicode="k" horiz-adv-x="305" 
d="M209 0l-55 196l-30 -68v-128h-90v666h90v-412l79 227h86l-77 -210l85 -271h-88z" />
    <glyph glyph-name="l" unicode="l" horiz-adv-x="158" 
d="M34 0v666h89v-666h-89z" />
    <glyph glyph-name="m" unicode="m" horiz-adv-x="463" 
d="M342 0v367q0 17 -8 28t-22 11q-18 0 -26 -18.5t-8 -35.5v-352h-90v370q0 17 -8 28t-21 11q-18 0 -27 -18.5t-9 -35.5v-355h-89v480h79l7 -62q11 35 31 52t47 17q28 0 46 -18.5t26 -48.5q11 35 32 51t48 16q38 0 59.5 -28t21.5 -77v-382h-89z" />
    <glyph glyph-name="n" unicode="n" horiz-adv-x="320" 
d="M198 0v367q0 19 -9.5 30.5t-24.5 11.5q-19 0 -30 -18.5t-11 -35.5v-355h-89v480h79l5 -63q12 35 34.5 52.5t49.5 17.5q41 0 63 -28.5t22 -76.5v-382h-89z" />
    <glyph glyph-name="o" unicode="o" 
d="M277 129q0 -64 -34.5 -100.5t-88.5 -36.5q-55 0 -90 36.5t-35 100.5v220q0 63 35 100.5t90 37.5q54 0 88.5 -37.5t34.5 -100.5v-220zM191 366q0 19 -10 31t-27 12q-18 0 -27.5 -12t-9.5 -31v-254q0 -19 9.5 -30.5t27.5 -11.5q17 0 27 11.5t10 30.5v254z" />
    <glyph glyph-name="p" unicode="p" horiz-adv-x="314" 
d="M285 101q0 -46 -24.5 -77t-60.5 -31q-26 0 -43.5 10t-33.5 32v-198h-89v643h71l6 -47q13 29 34.5 42t47.5 13q44 0 68 -31.5t24 -81.5v-274zM197 363q0 23 -9.5 35.5t-26.5 12.5q-16 0 -27 -12t-11 -34v-248q0 -20 10.5 -32.5t27.5 -12.5t26.5 12t9.5 35v244z" />
    <glyph glyph-name="q" unicode="q" horiz-adv-x="314" 
d="M191 -164v208q-24 -52 -80 -52q-35 0 -58.5 30.5t-23.5 76.5v274q0 51 24 82.5t69 31.5q26 0 47.5 -13.5t33.5 -42.5l9 47h68v-642h-89zM191 363q0 22 -10.5 34t-26.5 12q-17 0 -27.5 -12t-10.5 -35v-244q0 -23 10.5 -35.5t27.5 -12.5t27 13t10 33v247z" />
    <glyph glyph-name="r" unicode="r" horiz-adv-x="229" 
d="M217 386q-52 6 -73 -9.5t-21 -46.5v-330h-89v480h77l6 -68q12 43 38 60.5t62 12.5v-99z" />
    <glyph glyph-name="s" unicode="s" horiz-adv-x="282" 
d="M264 121q0 -53 -30.5 -91t-89.5 -38q-60 0 -91.5 35t-31.5 95v29h77v-36q0 -48 42 -48t42 42q0 17 -4 29t-13 24t-23 25l-34 31q-35 26 -59 60.5t-24 82.5q0 60 33.5 93t84.5 33q58 0 87.5 -35t29.5 -91v-30h-74v37q0 19 -10.5 30t-30.5 11q-18 0 -27.5 -10.5t-9.5 -27.5
q0 -26 15 -46t48 -49q38 -29 65.5 -64t27.5 -91z" />
    <glyph glyph-name="t" unicode="t" horiz-adv-x="204" 
d="M143 399v-260q0 -42 4 -75.5t15 -63.5h-89q-11 27 -15.5 59t-4.5 80v260h-44v78h49v79l85 25v-104h52v-78h-52z" />
    <glyph glyph-name="u" unicode="u" horiz-adv-x="321" 
d="M209 0l-5 58q-12 -33 -35 -49.5t-50 -16.5q-42 0 -64 28.5t-22 76.5v383h89v-369q0 -19 10 -30.5t25 -11.5q19 0 29.5 18.5t10.5 35.5v357h89v-480h-77z" />
    <glyph glyph-name="v" unicode="v" horiz-adv-x="280" 
d="M179 0h-79l-93 480h87l36 -238l12 -95l12 95l34 238h84z" />
    <glyph glyph-name="w" unicode="w" horiz-adv-x="418" 
d="M327 0h-75l-31 190l-12 99l-13 -99l-31 -190h-75l-83 480h87l28 -233l11 -104l11 104l32 233h73l29 -233l12 -104l11 104l30 233h81z" />
    <glyph glyph-name="x" unicode="x" horiz-adv-x="286" 
d="M188 0l-46 159l-47 -159h-89l87 237l-87 243h90l47 -161l47 161h89l-88 -234l88 -246h-91z" />
    <glyph glyph-name="y" unicode="y" horiz-adv-x="279" 
d="M175 -29q-7 -34 -15 -59.5t-21.5 -43t-34.5 -26t-54 -8.5h-22v74h18q23 0 31.5 10.5t13.5 33.5l8 55l-92 473h87l36 -236l12 -96l11 96l35 236h84z" />
    <glyph glyph-name="z" unicode="z" horiz-adv-x="258" 
d="M112 84h125v-84h-223v41l132 358h-123v81h219v-41z" />
    <glyph glyph-name="braceleft" unicode="{" horiz-adv-x="271" 
d="M202 -133q-34 0 -59.5 11t-42 29.5t-25 43t-8.5 52.5q0 38 11.5 72t25 64l25 54t11.5 42q0 23 -13 34t-45 11h-32v49h32q32 0 45 10.5t13 33.5q0 18 -11.5 42.5l-25 54.5t-25 64t-11.5 71q0 28 8.5 52.5t25 43t42 29.5t59.5 11h33v-57h-26q-31 0 -45.5 -22t-14.5 -57
q0 -28 9 -56t19.5 -54.5l19.5 -50.5t9 -45q0 -36 -17.5 -58.5t-62.5 -33.5q45 -10 62.5 -32.5t17.5 -59.5q0 -20 -9 -45l-19.5 -53t-19.5 -57t-9 -57q0 -34 14.5 -56t45.5 -22h26v-58h-33z" />
    <glyph glyph-name="bar" unicode="|" horiz-adv-x="131" 
d="M37 -64v793h57v-793h-57z" />
    <glyph glyph-name="braceright" unicode="}" horiz-adv-x="271" 
d="M189 280q-32 0 -44.5 -11t-12.5 -34q0 -18 11.5 -42l25 -54t24.5 -64t11 -72q0 -28 -8 -52.5t-25 -43t-42 -29.5t-60 -11h-32v58h26q31 0 45 22t14 56q0 28 -8.5 57t-19 57l-19.5 53t-9 45q0 37 17.5 59.5t61.5 32.5q-44 11 -61.5 33.5t-17.5 58.5q0 21 9 45l19.5 50.5
t19 54.5t8.5 56q0 35 -14 57t-45 22h-26v57h32q35 0 60 -11t42 -29.5t25 -43t8 -52.5q0 -37 -11 -71t-24.5 -64l-25 -54.5t-11.5 -42.5q0 -23 12.5 -33.5t44.5 -10.5h32v-49h-32z" />
    <glyph glyph-name="asciitilde" unicode="~" horiz-adv-x="242" 
d="M233 350q0 -34 -15.5 -54t-47.5 -20q-15 0 -28.5 7t-26 15.5l-23 15.5t-18.5 7q-17 0 -17 -20v-23h-36q-11 15 -11 37q0 34 15 53.5t46 19.5q15 0 29 -7t26.5 -15l23 -15t18.5 -7q18 0 18 20v24h36q11 -19 11 -38z" />
    <glyph glyph-name="nonbreakingspace" unicode="&#xa0;" horiz-adv-x="66" 
 />
    <glyph glyph-name="exclamdown" unicode="&#xa1;" horiz-adv-x="166" 
d="M42 371v109h81v-109h-81zM36 -186v289l32 201h29l32 -201v-289h-93z" />
    <glyph glyph-name="cent" unicode="&#xa2;" 
d="M127 666h67v-89q38 -11 60 -45.5t22 -85.5v-48h-76v61q0 20 -10 32t-28 12q-17 0 -27 -12t-10 -32v-251q0 -43 37 -43q38 0 38 43v60h76v-47q0 -52 -22 -85.5t-60 -44.5v-91h-67v90q-41 11 -66 44.5t-25 86.5v225q0 52 25 86t66 45v89z" />
    <glyph glyph-name="sterling" unicode="&#xa3;" horiz-adv-x="414" 
d="M392 122q0 -63 -26.5 -98.5t-84.5 -35.5q-33 0 -64.5 13t-51.5 34q-31 -47 -85 -47q-38 0 -61 22t-23 57q0 36 24.5 60.5t70.5 24.5q16 0 30 -4t27 -11q9 17 14 45t5 53q0 14 -3.5 30.5t-8.5 28.5h-105v75h76q-11 27 -20.5 63.5t-9.5 78.5q0 34 9 64t27 53t45.5 36.5
t64.5 13.5q35 0 60 -12.5t41.5 -33t24 -47t7.5 -53.5v-64h-87v57q0 26 -11.5 41t-34.5 15q-45 0 -45 -58q0 -44 10 -82.5t23 -71.5h109v-75h-89q2 -10 3 -21t1 -19q0 -38 -13 -79t-35 -73q14 -11 30.5 -18.5t31.5 -7.5q23 0 33 13.5t10 35.5v74h81v-77zM121 76
q-18 18 -38 18q-25 0 -25 -22q0 -9 6.5 -15.5t19.5 -6.5q11 0 21.5 6.5t15.5 19.5z" />
    <glyph glyph-name="currency" unicode="&#xa4;" horiz-adv-x="375" 
d="M201 -13q-36 0 -64.5 12t-48 33.5t-30 51t-10.5 63.5v103h-43v53h45v61h-45v54h43v101q0 34 10.5 63.5t30 51t48 33.5t64.5 12q73 0 111 -43t38 -112v-68h-91v70q0 26 -14 41t-42 15t-41.5 -15t-13.5 -40v-109h123v-54h-123v-61h123v-53h-123v-111q0 -25 13.5 -40
t41.5 -15t42 15t14 41v70h91v-68q0 -69 -38 -112t-111 -43z" />
    <glyph glyph-name="yen" unicode="&#xa5;" horiz-adv-x="371" 
d="M232 216h101v-76h-101v-140h-99v140h-100v76h100v60h-100v76h78l-92 314h103l66 -265l64 265h100l-97 -314h78v-76h-101v-60z" />
    <glyph glyph-name="section" unicode="&#xa7;" horiz-adv-x="369" 
d="M347 253q0 -49 -18 -84.5t-48 -57.5q30 -33 45 -62t15 -71q0 -29 -9 -55.5t-28 -46.5t-48 -32.5t-68 -12.5q-75 0 -120 39t-45 108v32h94v-39q0 -25 17 -40.5t48 -15.5q32 0 47.5 15.5t15.5 41.5q0 24 -16 44.5t-40 40t-52 40t-52 44.5t-40 53.5t-16 66.5q0 43 19 79
t48 59q-27 29 -43.5 59t-16.5 71q0 30 9 57.5t28 47.5t47 32t67 12q38 0 66.5 -11.5t47 -32t28 -47t9.5 -56.5v-30h-94v37q0 21 -11 37t-43 16q-29 0 -41.5 -14.5t-12.5 -37.5t15.5 -43t39 -39.5t51 -40t51 -45t39 -53.5t15.5 -65zM259 228q0 32 -23 61.5t-83 66.5
q-17 -11 -26.5 -31.5t-9.5 -40.5q0 -15 5 -29.5t17 -29t32.5 -30.5t52.5 -36q16 11 25.5 30t9.5 39z" />
    <glyph glyph-name="dieresis" unicode="&#xa8;" horiz-adv-x="206" 
d="M124 552v93h70v-93h-70zM12 552v93h69v-93h-69z" />
    <glyph glyph-name="copyright" unicode="&#xa9;" horiz-adv-x="611" 
d="M592 319q0 -60 -22 -112.5t-60 -91.5t-90.5 -61.5t-114.5 -22.5q-61 0 -113.5 22.5t-91 61.5t-60 91.5t-21.5 112.5t21.5 112.5t60 91.5t91 62t113.5 23q62 0 114.5 -23t90.5 -62t60 -91.5t22 -112.5zM547 319q0 51 -17.5 96t-49.5 78.5t-76.5 53t-98.5 19.5
q-53 0 -97.5 -19.5t-76.5 -53t-49.5 -78.5t-17.5 -96t17.5 -96t49.5 -78.5t76.5 -53t97.5 -19.5q54 0 98.5 19.5t76.5 53t49.5 78.5t17.5 96zM402 263q0 -36 -25.5 -59t-67.5 -23q-43 0 -70 24t-27 59v109q0 37 27 60.5t70 23.5q42 0 67.5 -22.5t25.5 -59.5v-18h-44v17
q0 19 -12 32t-36 13t-36 -13.5t-12 -32.5v-108q0 -19 12 -32t36 -13t36 12.5t12 30.5v18h44v-18z" />
    <glyph glyph-name="ordfeminine" unicode="&#xaa;" horiz-adv-x="270" 
d="M232 310q-43 0 -55 41q-24 -41 -75 -41q-35 0 -57 23.5t-22 65.5v14q0 26 10.5 45t28.5 33t43 24t55 19v54q0 14 -7 22t-21 8q-16 0 -22 -8.5t-6 -23.5v-29h-68v26q0 41 24 68t75 27t74.5 -28.5t23.5 -73.5v-195q0 -9 4.5 -13.5t18.5 -4.5v-53h-24zM160 484
q-65 -16 -65 -62v-23q0 -14 7 -23t22 -9t25.5 9.5t10.5 26.5v81z" />
    <glyph glyph-name="guillemotleft" unicode="&#xab;" horiz-adv-x="368" 
d="M300 0q-11 58 -41 100t-77 62v63q47 20 77 62t41 100h41q0 -63 -19 -114t-54 -80q35 -29 54 -79t19 -114h-41zM138 0q-11 58 -40.5 100t-77.5 62v63q48 20 77.5 62t40.5 100h42q0 -63 -19 -114t-54 -80q35 -29 54 -79t19 -114h-42z" />
    <glyph glyph-name="logicalnot" unicode="&#xac;" horiz-adv-x="355" 
d="M256 203l-79 79l-79 -79l-52 52l78 78l-78 80l53 52l79 -79l79 79l52 -52l-80 -78l80 -79z" />
    <glyph glyph-name="registered" unicode="&#xae;" horiz-adv-x="611" 
d="M592 319q0 -60 -22 -112.5t-60 -91.5t-90.5 -61.5t-114.5 -22.5q-61 0 -113.5 22.5t-91 61.5t-60 91.5t-21.5 112.5t21.5 112.5t60 91.5t91 62t113.5 23q62 0 114.5 -23t90.5 -62t60 -91.5t22 -112.5zM547 319q0 51 -17.5 96t-49.5 78.5t-76.5 53t-98.5 19.5
q-53 0 -97.5 -19.5t-76.5 -53t-49.5 -78.5t-17.5 -96t17.5 -96t49.5 -78.5t76.5 -53t97.5 -19.5q54 0 98.5 19.5t76.5 53t49.5 78.5t17.5 96zM404 187q-29 0 -40 9t-11 33v33q0 17 -8 27.5t-26 10.5h-49v-110h-50v262h104q43 0 60 -19.5t17 -51.5v-8q0 -24 -9.5 -37.5
t-33.5 -18.5q23 -2 34 -18.5t11 -35.5v-30q0 -11 14 -11v-35h-13zM351 382q0 13 -6.5 22t-24.5 9h-50v-79h46q35 0 35 36v12z" />
    <glyph glyph-name="macron" unicode="&#xaf;" horiz-adv-x="213" 
d="M10 566v60h193v-60h-193z" />
    <glyph glyph-name="degree" unicode="&#xb0;" horiz-adv-x="238" 
d="M225 575q0 -21 -7.5 -39.5t-21.5 -33t-33.5 -23t-43.5 -8.5t-43.5 8.5t-33.5 23t-21.5 33t-7.5 39.5t7.5 39.5t21.5 32.5t33.5 22.5t43.5 8.5t43.5 -8.5t33.5 -22.5t21.5 -32.5t7.5 -39.5zM171 575q0 25 -13.5 41t-38.5 16t-38.5 -16t-13.5 -41q0 -26 13.5 -42t38.5 -16
t38.5 16t13.5 42z" />
    <glyph glyph-name="plusminus" unicode="&#xb1;" horiz-adv-x="520" 
d="M24 0v492h472v-492h-472zM445 443h-370v-394h370v394z" />
    <glyph glyph-name="acute" unicode="&#xb4;" horiz-adv-x="156" 
d="M84 535h-51l35 132h86z" />
    <glyph glyph-name="paragraph" unicode="&#xb6;" horiz-adv-x="481" 
d="M378 -162v743h-61v-743h-62v353h-35q-40 0 -75 16.5t-60.5 46.5t-40 72t-14.5 94v16q0 52 14.5 94.5t40 72.5t60.5 46.5t75 16.5h220v-828h-62zM255 581h-17q-29 0 -45 -26.5t-16 -66.5v-137q0 -39 16 -60t45 -21h17v311z" />
    <glyph glyph-name="periodcentered" unicode="&#xb7;" horiz-adv-x="138" 
d="M27 273v118h84v-118h-84z" />
    <glyph glyph-name="cedilla" unicode="&#xb8;" horiz-adv-x="155" 
d="M161 -131q0 -31 -22 -52.5t-55 -21.5q-11 0 -19 3t-12 5v27h16q32 0 32 30v23q0 31 -32 31q-17 0 -34 -18l-26 20l70 102l26 -19l-43 -63q5 5 13.5 6t16.5 1q33 0 51 -21t18 -53z" />
    <glyph glyph-name="ordmasculine" unicode="&#xba;" horiz-adv-x="252" 
d="M231 417q0 -50 -30 -78.5t-75 -28.5t-75 28.5t-30 78.5v154q0 50 30 78.5t75 28.5t75 -28.5t30 -78.5v-154zM158 585q0 14 -9 24t-23 10t-23 -10t-9 -24v-182q0 -15 9 -24.5t23 -9.5t23 9.5t9 24.5v182z" />
    <glyph glyph-name="guillemotright" unicode="&#xbb;" horiz-adv-x="368" 
d="M346 162q-47 -20 -77 -62t-41 -100h-42q0 64 19 114t54 79q-35 29 -54 80t-19 114h42q11 -58 41 -100t77 -62v-63zM184 162q-47 -20 -77 -62t-41 -100h-41q0 64 19 114t54 79q-35 29 -54 80t-19 114h41q11 -58 41 -100t77 -62v-63z" />
    <glyph glyph-name="questiondown" unicode="&#xbf;" horiz-adv-x="287" 
d="M197 480v-109h-80v109h80zM-4 -44q0 51 20 104t62 105q26 32 35 63t9 66h68q0 -28 -3.5 -51t-11 -47t-20.5 -51t-33 -63q-17 -32 -24.5 -63.5t-7.5 -54.5q0 -39 11.5 -54.5t36.5 -15.5q26 0 37 16t11 45v71h87v-79q0 -62 -33 -103.5t-102 -41.5q-39 0 -66 12t-44 33
t-24.5 49t-7.5 60z" />
    <glyph glyph-name="Agrave" unicode="&#xc0;" horiz-adv-x="347" 
d="M235 0l-17 130h-97l-20 -130h-97l111 666h117l111 -666h-108zM173 491l-39 -272h72zM145 701l-70 132h86l35 -132h-51z" />
    <glyph glyph-name="Aacute" unicode="&#xc1;" horiz-adv-x="347" 
d="M235 0l-17 130h-97l-20 -130h-97l111 666h117l111 -666h-108zM173 491l-39 -272h72zM197 701h-51l35 132h86z" />
    <glyph glyph-name="Acircumflex" unicode="&#xc2;" horiz-adv-x="347" 
d="M235 0l-17 130h-97l-20 -130h-97l111 666h117l111 -666h-108zM173 491l-39 -272h72zM287 710q-10 -4 -20.5 -5.5t-18.5 -1.5q-27 0 -46.5 17.5t-27.5 53.5q-8 -36 -28 -53.5t-47 -17.5q-17 0 -34 7v25q23 0 44.5 22.5t32.5 70.5h66q11 -48 33.5 -70.5t45.5 -22.5v-25z
" />
    <glyph glyph-name="Atilde" unicode="&#xc3;" horiz-adv-x="347" 
d="M235 0l-17 130h-97l-20 -130h-97l111 666h117l111 -666h-108zM173 491l-39 -272h72zM283 785q0 -34 -15.5 -54t-47.5 -20q-15 0 -28.5 7t-26 15.5l-23 15.5t-18.5 7q-17 0 -17 -20v-23h-36q-11 15 -11 37q0 34 15 53.5t46 19.5q15 0 29 -7t26.5 -15l23 -15t18.5 -7
q18 0 18 20v24h36q11 -19 11 -38z" />
    <glyph glyph-name="Adieresis" unicode="&#xc4;" horiz-adv-x="347" 
d="M235 0l-17 130h-97l-20 -130h-97l111 666h117l111 -666h-108zM173 491l-39 -272h72zM193 718v93h70v-93h-70zM81 718v93h69v-93h-69z" />
    <glyph glyph-name="Aring" unicode="&#xc5;" horiz-adv-x="347" 
d="M130 666q-11 9 -18 22.5t-7 29.5q0 29 19 51t49 22t49 -22t19 -51q0 -33 -24 -52h15l111 -666h-108l-17 130h-97l-20 -130h-97l111 666h15zM207 718q0 20 -9 31t-25 11t-24.5 -11t-8.5 -31q0 -19 8.5 -30t24.5 -11t25 11t9 30zM173 491l-39 -272h72z" />
    <glyph glyph-name="AE" unicode="&#xc6;" horiz-adv-x="516" 
d="M229 0v130h-91l-33 -130h-102l176 666h316v-94h-160v-183h111v-88h-111v-204h160v-97h-266zM229 510l-67 -291h67v291z" />
    <glyph glyph-name="Ccedilla" unicode="&#xc7;" horiz-adv-x="365" 
d="M158 -9q-60 10 -94 53t-34 103v372q0 34 11.5 63t32.5 50.5t51 33.5t66 12q74 0 112.5 -43t38.5 -110v-96h-94v98q0 24 -13.5 39.5t-41.5 15.5t-41.5 -15.5t-13.5 -38.5v-390q0 -23 13.5 -38.5t41.5 -15.5t41.5 15.5t13.5 39.5v99h94v-97q0 -66 -37.5 -108.5
t-108.5 -44.5l-35 -52q5 5 13.5 6t15.5 1q33 0 51 -21t18 -53q0 -31 -21.5 -52.5t-54.5 -21.5q-11 0 -19.5 3t-11.5 5v27h15q32 0 32 30v23q0 31 -32 31q-17 0 -34 -18l-26 20z" />
    <glyph glyph-name="Egrave" unicode="&#xc8;" horiz-adv-x="323" 
d="M37 0v666h266v-94h-160v-184h111v-88h-111v-203h160v-97h-266zM144 701l-70 132h86l35 -132h-51z" />
    <glyph glyph-name="Eacute" unicode="&#xc9;" horiz-adv-x="323" 
d="M37 0v666h266v-94h-160v-184h111v-88h-111v-203h160v-97h-266zM184 701h-51l35 132h86z" />
    <glyph glyph-name="Ecircumflex" unicode="&#xca;" horiz-adv-x="323" 
d="M37 0v666h266v-94h-160v-184h111v-88h-111v-203h160v-97h-266zM279 710q-10 -4 -20.5 -5.5t-18.5 -1.5q-27 0 -46.5 17.5t-27.5 53.5q-8 -36 -28 -53.5t-47 -17.5q-17 0 -34 7v25q23 0 44.5 22.5t32.5 70.5h66q11 -48 33.5 -70.5t45.5 -22.5v-25z" />
    <glyph glyph-name="Edieresis" unicode="&#xcb;" horiz-adv-x="323" 
d="M37 0v666h266v-94h-160v-184h111v-88h-111v-203h160v-97h-266zM190 718v93h70v-93h-70zM78 718v93h69v-93h-69z" />
    <glyph glyph-name="Igrave" unicode="&#xcc;" horiz-adv-x="181" 
d="M37 0v666h106v-666h-106zM64 701l-70 132h86l35 -132h-51z" />
    <glyph glyph-name="Iacute" unicode="&#xcd;" horiz-adv-x="181" 
d="M37 0v666h106v-666h-106zM112 701h-51l35 132h86z" />
    <glyph glyph-name="Icircumflex" unicode="&#xce;" horiz-adv-x="181" 
d="M37 0v666h106v-666h-106zM204 710q-10 -4 -20.5 -5.5t-18.5 -1.5q-27 0 -46.5 17.5t-27.5 53.5q-8 -36 -28 -53.5t-47 -17.5q-17 0 -34 7v25q23 0 44.5 22.5t32.5 70.5h66q11 -48 33.5 -70.5t45.5 -22.5v-25z" />
    <glyph glyph-name="Idieresis" unicode="&#xcf;" horiz-adv-x="181" 
d="M37 0v666h106v-666h-106zM111 718v93h70v-93h-70zM-1 718v93h69v-93h-69z" />
    <glyph glyph-name="Eth" unicode="&#xd0;" horiz-adv-x="402" 
d="M-3 295v75h60v296h162q72 0 112 -42t40 -117v-352q0 -75 -40 -115t-112 -40h-162v295h-60zM214 370v-75h-51v-201h49q53 0 53 63v351q0 63 -53 63h-49v-201h51z" />
    <glyph glyph-name="Ntilde" unicode="&#xd1;" horiz-adv-x="400" 
d="M281 0l-112 302l-37 102v-404h-96v666h94l104 -305l34 -103v408h95v-666h-82zM310 785q0 -34 -15.5 -54t-47.5 -20q-15 0 -28.5 7t-26 15.5l-23 15.5t-18.5 7q-17 0 -17 -20v-23h-36q-11 15 -11 37q0 34 15 53.5t46 19.5q15 0 29 -7t26.5 -15l23 -15t18.5 -7q18 0 18 20
v24h36q11 -19 11 -38z" />
    <glyph glyph-name="Ograve" unicode="&#xd2;" horiz-adv-x="380" 
d="M349 146q0 -70 -43.5 -114t-115.5 -44t-115.5 44t-43.5 114v374q0 35 11.5 64t32 50t50 32.5t65.5 11.5t65.5 -11.5t50 -32.5t32 -50t11.5 -64v-374zM242 528q0 24 -13.5 39t-38.5 15t-38.5 -15t-13.5 -39v-390q0 -24 13.5 -39t38.5 -15t38.5 15t13.5 39v390zM164 701
l-70 132h86l35 -132h-51z" />
    <glyph glyph-name="Oacute" unicode="&#xd3;" horiz-adv-x="380" 
d="M349 146q0 -70 -43.5 -114t-115.5 -44t-115.5 44t-43.5 114v374q0 35 11.5 64t32 50t50 32.5t65.5 11.5t65.5 -11.5t50 -32.5t32 -50t11.5 -64v-374zM242 528q0 24 -13.5 39t-38.5 15t-38.5 -15t-13.5 -39v-390q0 -24 13.5 -39t38.5 -15t38.5 15t13.5 39v390zM213 701
h-51l35 132h86z" />
    <glyph glyph-name="Ocircumflex" unicode="&#xd4;" horiz-adv-x="380" 
d="M349 146q0 -70 -43.5 -114t-115.5 -44t-115.5 44t-43.5 114v374q0 35 11.5 64t32 50t50 32.5t65.5 11.5t65.5 -11.5t50 -32.5t32 -50t11.5 -64v-374zM242 528q0 24 -13.5 39t-38.5 15t-38.5 -15t-13.5 -39v-390q0 -24 13.5 -39t38.5 -15t38.5 15t13.5 39v390zM303 710
q-10 -4 -20.5 -5.5t-18.5 -1.5q-27 0 -46.5 17.5t-27.5 53.5q-8 -36 -28 -53.5t-47 -17.5q-17 0 -34 7v25q23 0 44.5 22.5t32.5 70.5h66q11 -48 33.5 -70.5t45.5 -22.5v-25z" />
    <glyph glyph-name="Otilde" unicode="&#xd5;" horiz-adv-x="380" 
d="M349 146q0 -70 -43.5 -114t-115.5 -44t-115.5 44t-43.5 114v374q0 35 11.5 64t32 50t50 32.5t65.5 11.5t65.5 -11.5t50 -32.5t32 -50t11.5 -64v-374zM242 528q0 24 -13.5 39t-38.5 15t-38.5 -15t-13.5 -39v-390q0 -24 13.5 -39t38.5 -15t38.5 15t13.5 39v390zM298 785
q0 -34 -15.5 -54t-47.5 -20q-15 0 -28.5 7t-26 15.5l-23 15.5t-18.5 7q-17 0 -17 -20v-23h-36q-11 15 -11 37q0 34 15 53.5t46 19.5q15 0 29 -7t26.5 -15l23 -15t18.5 -7q18 0 18 20v24h36q11 -19 11 -38z" />
    <glyph glyph-name="Odieresis" unicode="&#xd6;" horiz-adv-x="380" 
d="M349 146q0 -70 -43.5 -114t-115.5 -44t-115.5 44t-43.5 114v374q0 35 11.5 64t32 50t50 32.5t65.5 11.5t65.5 -11.5t50 -32.5t32 -50t11.5 -64v-374zM242 528q0 24 -13.5 39t-38.5 15t-38.5 -15t-13.5 -39v-390q0 -24 13.5 -39t38.5 -15t38.5 15t13.5 39v390zM212 718v93
h70v-93h-70zM100 718v93h69v-93h-69z" />
    <glyph glyph-name="multiply" unicode="&#xd7;" horiz-adv-x="355" 
d="M256 203l-79 79l-79 -79l-52 52l78 78l-78 80l53 52l79 -79l79 79l52 -52l-80 -78l80 -79z" />
    <glyph glyph-name="Oslash" unicode="&#xd8;" horiz-adv-x="380" 
d="M363 671q-9 -20 -16 -37q-6 -15 -11 -26l-5 -11q18 -33 18 -77v-374q0 -70 -43.5 -114t-115.5 -44q-32 0 -58.5 9t-46.5 26l-23 -53l-45 25l31 73q-17 36 -17 78v374q0 35 11.5 64t32 50t50 32.5t65.5 11.5q32 0 58 -9t46 -25l9 20.5l7 16.5q4 8 7 15zM242 528
q0 24 -13.5 39t-38.5 15t-38.5 -15t-13.5 -39v-250l52 121l22 51.5l14.5 34l11 25.5l4.5 10v8zM242 389l-104 -242v-9q0 -24 13.5 -39t38.5 -15t38.5 15t13.5 39v251z" />
    <glyph glyph-name="Ugrave" unicode="&#xd9;" horiz-adv-x="382" 
d="M347 138q0 -34 -11.5 -61.5t-32 -47t-49 -30.5t-62.5 -11t-62.5 11t-49.5 30.5t-33 47t-12 61.5v528h107v-530q0 -53 50 -53q52 0 52 53v530h103v-528zM169 701l-70 132h86l35 -132h-51z" />
    <glyph glyph-name="Uacute" unicode="&#xda;" horiz-adv-x="382" 
d="M347 138q0 -34 -11.5 -61.5t-32 -47t-49 -30.5t-62.5 -11t-62.5 11t-49.5 30.5t-33 47t-12 61.5v528h107v-530q0 -53 50 -53q52 0 52 53v530h103v-528zM217 701h-51l35 132h86z" />
    <glyph glyph-name="Ucircumflex" unicode="&#xdb;" horiz-adv-x="382" 
d="M347 138q0 -34 -11.5 -61.5t-32 -47t-49 -30.5t-62.5 -11t-62.5 11t-49.5 30.5t-33 47t-12 61.5v528h107v-530q0 -53 50 -53q52 0 52 53v530h103v-528zM307 710q-10 -4 -20.5 -5.5t-18.5 -1.5q-27 0 -46.5 17.5t-27.5 53.5q-8 -36 -28 -53.5t-47 -17.5q-17 0 -34 7v25
q23 0 44.5 22.5t32.5 70.5h66q11 -48 33.5 -70.5t45.5 -22.5v-25z" />
    <glyph glyph-name="Udieresis" unicode="&#xdc;" horiz-adv-x="382" 
d="M347 138q0 -34 -11.5 -61.5t-32 -47t-49 -30.5t-62.5 -11t-62.5 11t-49.5 30.5t-33 47t-12 61.5v528h107v-530q0 -53 50 -53q52 0 52 53v530h103v-528zM215 718v93h70v-93h-70zM103 718v93h69v-93h-69z" />
    <glyph glyph-name="Yacute" unicode="&#xdd;" horiz-adv-x="349" 
d="M225 268v-268h-106v268l-120 398h108l71 -279l69 279h105zM202 701h-51l35 132h86z" />
    <glyph glyph-name="Thorn" unicode="&#xde;" horiz-adv-x="357" 
d="M337 281q0 -69 -36 -101.5t-93 -32.5h-65v-147h-106v666h107v-116h64q57 0 93 -32.5t36 -101.5v-135zM235 415q0 45 -36 45h-56v-227h56q36 0 36 44v138z" />
    <glyph glyph-name="germandbls" unicode="&#xdf;" horiz-adv-x="323" 
d="M293 106q0 -56 -28.5 -85t-73.5 -29q-9 0 -18.5 2.5t-14.5 7.5v47q46 0 46 47v177q0 23 -10 35t-34 12v70q26 0 36.5 13t10.5 35v97q0 25 -10 39t-30 14q-21 0 -31.5 -14t-10.5 -40v-534h-90v517q0 69 32.5 109t94.5 40q64 0 96 -39t32 -106v-72q0 -32 -12.5 -58
t-35.5 -38q27 -14 39 -37t12 -60v-150z" />
    <glyph glyph-name="agrave" unicode="&#xe0;" horiz-adv-x="301" 
d="M263 -8q-23 0 -40 12.5t-25 39.5q-14 -26 -36 -39t-50 -13q-42 0 -68 30.5t-26 86.5v23q0 33 12 58t33.5 44.5t51 34t63.5 27.5v74q0 38 -33 38q-18 0 -25 -10t-7 -30v-42h-81v38q0 54 29 88.5t88 34.5t87 -36.5t28 -93.5v-274q0 -23 20 -24v-67h-21zM178 228
q-75 -25 -75 -83v-38q0 -18 8 -30t25 -12q18 0 30 13.5t12 33.5v116zM124 535l-70 132h86l35 -132h-51z" />
    <glyph glyph-name="aacute" unicode="&#xe1;" horiz-adv-x="301" 
d="M263 -8q-23 0 -40 12.5t-25 39.5q-14 -26 -36 -39t-50 -13q-42 0 -68 30.5t-26 86.5v23q0 33 12 58t33.5 44.5t51 34t63.5 27.5v74q0 38 -33 38q-18 0 -25 -10t-7 -30v-42h-81v38q0 54 29 88.5t88 34.5t87 -36.5t28 -93.5v-274q0 -23 20 -24v-67h-21zM178 228
q-75 -25 -75 -83v-38q0 -18 8 -30t25 -12q18 0 30 13.5t12 33.5v116zM173 535h-51l35 132h86z" />
    <glyph glyph-name="acircumflex" unicode="&#xe2;" horiz-adv-x="301" 
d="M263 -8q-23 0 -40 12.5t-25 39.5q-14 -26 -36 -39t-50 -13q-42 0 -68 30.5t-26 86.5v23q0 33 12 58t33.5 44.5t51 34t63.5 27.5v74q0 38 -33 38q-18 0 -25 -10t-7 -30v-42h-81v38q0 54 29 88.5t88 34.5t87 -36.5t28 -93.5v-274q0 -23 20 -24v-67h-21zM178 228
q-75 -25 -75 -83v-38q0 -18 8 -30t25 -12q18 0 30 13.5t12 33.5v116zM263 544q-10 -4 -20.5 -5.5t-18.5 -1.5q-27 0 -46.5 17.5t-27.5 53.5q-8 -36 -28 -53.5t-47 -17.5q-17 0 -34 7v25q23 0 44.5 22.5t32.5 70.5h66q11 -48 33.5 -70.5t45.5 -22.5v-25z" />
    <glyph glyph-name="atilde" unicode="&#xe3;" horiz-adv-x="301" 
d="M263 -8q-23 0 -40 12.5t-25 39.5q-14 -26 -36 -39t-50 -13q-42 0 -68 30.5t-26 86.5v23q0 33 12 58t33.5 44.5t51 34t63.5 27.5v74q0 38 -33 38q-18 0 -25 -10t-7 -30v-42h-81v38q0 54 29 88.5t88 34.5t87 -36.5t28 -93.5v-274q0 -23 20 -24v-67h-21zM178 228
q-75 -25 -75 -83v-38q0 -18 8 -30t25 -12q18 0 30 13.5t12 33.5v116zM258 619q0 -34 -15.5 -54t-47.5 -20q-15 0 -28.5 7t-26 15.5l-23 15.5t-18.5 7q-17 0 -17 -20v-23h-36q-11 15 -11 37q0 34 15 53.5t46 19.5q15 0 29 -7t26.5 -15l23 -15t18.5 -7q18 0 18 20v24h36
q11 -19 11 -38z" />
    <glyph glyph-name="adieresis" unicode="&#xe4;" horiz-adv-x="301" 
d="M263 -8q-23 0 -40 12.5t-25 39.5q-14 -26 -36 -39t-50 -13q-42 0 -68 30.5t-26 86.5v23q0 33 12 58t33.5 44.5t51 34t63.5 27.5v74q0 38 -33 38q-18 0 -25 -10t-7 -30v-42h-81v38q0 54 29 88.5t88 34.5t87 -36.5t28 -93.5v-274q0 -23 20 -24v-67h-21zM178 228
q-75 -25 -75 -83v-38q0 -18 8 -30t25 -12q18 0 30 13.5t12 33.5v116zM169 552v93h70v-93h-70zM57 552v93h69v-93h-69z" />
    <glyph glyph-name="aring" unicode="&#xe5;" horiz-adv-x="301" 
d="M263 -8q-23 0 -40 12.5t-25 39.5q-14 -26 -36 -39t-50 -13q-42 0 -68 30.5t-26 86.5v23q0 33 12 58t33.5 44.5t51 34t63.5 27.5v74q0 38 -33 38q-18 0 -25 -10t-7 -30v-42h-81v38q0 54 29 88.5t88 34.5t87 -36.5t28 -93.5v-274q0 -23 20 -24v-67h-21zM178 228
q-75 -25 -75 -83v-38q0 -18 8 -30t25 -12q18 0 30 13.5t12 33.5v116zM216 609q0 -29 -19 -50.5t-49 -21.5t-49 21.5t-19 50.5t19 51t49 22t49 -22t19 -51zM182 609q0 41 -34 41q-33 0 -33 -41q0 -19 8.5 -30t24.5 -11t25 11t9 30z" />
    <glyph glyph-name="ae" unicode="&#xe6;" horiz-adv-x="451" 
d="M425 127q0 -61 -31 -98t-80 -37q-29 0 -54 11.5t-40 36.5q-33 -48 -100 -48q-48 0 -74.5 31t-26.5 86v23q0 33 12 58t33.5 44.5t51 34t63.5 27.5v70q0 19 -8 30t-26 11q-34 0 -34 -40v-41h-78v38q0 54 28.5 88.5t79.5 34.5q29 0 49 -12.5t34 -34.5q14 22 37.5 34.5
t52.5 12.5q51 0 81 -37.5t30 -98.5v-123h-156v-112q0 -20 9.5 -32.5t29.5 -12.5t29 12.5t9 32.5v57h79v-46zM344 363q0 20 -9 32.5t-28 12.5t-28.5 -12.5t-9.5 -32.5v-84h75v84zM179 228q-75 -25 -75 -83v-37q0 -18 8 -29.5t25 -11.5q18 0 30 13.5t12 33.5v114z" />
    <glyph glyph-name="ccedilla" unicode="&#xe7;" horiz-adv-x="291" 
d="M123 -5q-42 9 -68 44t-26 90v220q0 63 34.5 100.5t88.5 37.5q56 0 86.5 -37t30.5 -100v-46h-75v60q0 20 -10 32.5t-29 12.5q-18 0 -28.5 -12.5t-10.5 -34.5v-246q0 -22 10.5 -34t28.5 -12q19 0 29 12.5t10 32.5v59h75v-45q0 -61 -28 -97t-81 -39l-39 -57q5 5 13.5 6
t16.5 1q33 0 51 -21t18 -53q0 -31 -22 -52.5t-55 -21.5q-11 0 -19 3t-12 5v27h16q32 0 32 30v23q0 31 -32 31q-17 0 -34 -18l-26 20z" />
    <glyph glyph-name="egrave" unicode="&#xe8;" horiz-adv-x="298" 
d="M272 127q0 -61 -32 -98t-87 -37q-54 0 -89 37t-35 99v223q0 61 35 98.5t89 37.5q55 0 87 -37.5t32 -98.5v-123h-156v-114q0 -20 9.5 -32t28.5 -12q20 0 29 12t9 32v59h80v-46zM191 364q0 20 -9 32.5t-28 12.5q-18 0 -28 -12.5t-10 -32.5v-85h75v85zM128 535l-70 132h86
l35 -132h-51z" />
    <glyph glyph-name="eacute" unicode="&#xe9;" horiz-adv-x="298" 
d="M272 127q0 -61 -32 -98t-87 -37q-54 0 -89 37t-35 99v223q0 61 35 98.5t89 37.5q55 0 87 -37.5t32 -98.5v-123h-156v-114q0 -20 9.5 -32t28.5 -12q20 0 29 12t9 32v59h80v-46zM191 364q0 20 -9 32.5t-28 12.5q-18 0 -28 -12.5t-10 -32.5v-85h75v85zM178 535h-51l35 132
h86z" />
    <glyph glyph-name="ecircumflex" unicode="&#xea;" horiz-adv-x="298" 
d="M272 127q0 -61 -32 -98t-87 -37q-54 0 -89 37t-35 99v223q0 61 35 98.5t89 37.5q55 0 87 -37.5t32 -98.5v-123h-156v-114q0 -20 9.5 -32t28.5 -12q20 0 29 12t9 32v59h80v-46zM191 364q0 20 -9 32.5t-28 12.5q-18 0 -28 -12.5t-10 -32.5v-85h75v85zM263 544
q-10 -4 -20.5 -5.5t-18.5 -1.5q-27 0 -46.5 17.5t-27.5 53.5q-8 -36 -28 -53.5t-47 -17.5q-17 0 -34 7v25q23 0 44.5 22.5t32.5 70.5h66q11 -48 33.5 -70.5t45.5 -22.5v-25z" />
    <glyph glyph-name="edieresis" unicode="&#xeb;" horiz-adv-x="298" 
d="M272 127q0 -61 -32 -98t-87 -37q-54 0 -89 37t-35 99v223q0 61 35 98.5t89 37.5q55 0 87 -37.5t32 -98.5v-123h-156v-114q0 -20 9.5 -32t28.5 -12q20 0 29 12t9 32v59h80v-46zM191 364q0 20 -9 32.5t-28 12.5q-18 0 -28 -12.5t-10 -32.5v-85h75v85zM172 552v93h70v-93
h-70zM60 552v93h69v-93h-69z" />
    <glyph glyph-name="igrave" unicode="&#xec;" horiz-adv-x="158" 
d="M34 0v480h89v-480h-89zM51 535l-70 132h86l35 -132h-51z" />
    <glyph glyph-name="iacute" unicode="&#xed;" horiz-adv-x="158" 
d="M34 0v480h89v-480h-89zM104 535h-51l35 132h86z" />
    <glyph glyph-name="icircumflex" unicode="&#xee;" horiz-adv-x="158" 
d="M34 0v480h89v-480h-89zM192 544q-10 -4 -20.5 -5.5t-18.5 -1.5q-27 0 -46.5 17.5t-27.5 53.5q-8 -36 -28 -53.5t-47 -17.5q-17 0 -34 7v25q23 0 44.5 22.5t32.5 70.5h66q11 -48 33.5 -70.5t45.5 -22.5v-25z" />
    <glyph glyph-name="idieresis" unicode="&#xef;" horiz-adv-x="158" 
d="M34 0v480h89v-480h-89zM99 552v93h70v-93h-70zM-13 552v93h69v-93h-69z" />
    <glyph glyph-name="eth" unicode="&#xf0;" horiz-adv-x="310" 
d="M263 645l18 -44l-38 -18q18 -35 27.5 -78t9.5 -97v-279q0 -32 -10 -57.5t-27 -43t-40 -27t-49 -9.5q-54 0 -89 36.5t-35 100.5v242q0 45 24.5 77t62.5 32q24 0 42 -11t32 -31q-2 64 -22 109l-53 -26l-17 44l48 24q-14 20 -31 38.5t-37 35.5v3h103q19 -18 37 -42zM117 112
q0 -18 10.5 -29.5t26.5 -11.5q17 0 27 11.5t10 29.5v249q0 21 -10 33.5t-27 12.5t-27 -12t-10 -35v-248z" />
    <glyph glyph-name="ntilde" unicode="&#xf1;" horiz-adv-x="320" 
d="M198 0v367q0 19 -9.5 30.5t-24.5 11.5q-19 0 -30 -18.5t-11 -35.5v-355h-89v480h79l5 -63q12 35 34.5 52.5t49.5 17.5q41 0 63 -28.5t22 -76.5v-382h-89zM266 619q0 -34 -15.5 -54t-47.5 -20q-15 0 -28.5 7t-26 15.5l-23 15.5t-18.5 7q-17 0 -17 -20v-23h-36
q-11 15 -11 37q0 34 15 53.5t46 19.5q15 0 29 -7t26.5 -15l23 -15t18.5 -7q18 0 18 20v24h36q11 -19 11 -38z" />
    <glyph glyph-name="ograve" unicode="&#xf2;" 
d="M277 129q0 -64 -34.5 -100.5t-88.5 -36.5q-55 0 -90 36.5t-35 100.5v220q0 63 35 100.5t90 37.5q54 0 88.5 -37.5t34.5 -100.5v-220zM191 366q0 19 -10 31t-27 12q-18 0 -27.5 -12t-9.5 -31v-254q0 -19 9.5 -30.5t27.5 -11.5q17 0 27 11.5t10 30.5v254zM128 535l-70 132
h86l35 -132h-51z" />
    <glyph glyph-name="oacute" unicode="&#xf3;" 
d="M277 129q0 -64 -34.5 -100.5t-88.5 -36.5q-55 0 -90 36.5t-35 100.5v220q0 63 35 100.5t90 37.5q54 0 88.5 -37.5t34.5 -100.5v-220zM191 366q0 19 -10 31t-27 12q-18 0 -27.5 -12t-9.5 -31v-254q0 -19 9.5 -30.5t27.5 -11.5q17 0 27 11.5t10 30.5v254zM180 535h-51
l35 132h86z" />
    <glyph glyph-name="ocircumflex" unicode="&#xf4;" 
d="M277 129q0 -64 -34.5 -100.5t-88.5 -36.5q-55 0 -90 36.5t-35 100.5v220q0 63 35 100.5t90 37.5q54 0 88.5 -37.5t34.5 -100.5v-220zM191 366q0 19 -10 31t-27 12q-18 0 -27.5 -12t-9.5 -31v-254q0 -19 9.5 -30.5t27.5 -11.5q17 0 27 11.5t10 30.5v254zM268 544
q-10 -4 -20.5 -5.5t-18.5 -1.5q-27 0 -46.5 17.5t-27.5 53.5q-8 -36 -28 -53.5t-47 -17.5q-17 0 -34 7v25q23 0 44.5 22.5t32.5 70.5h66q11 -48 33.5 -70.5t45.5 -22.5v-25z" />
    <glyph glyph-name="otilde" unicode="&#xf5;" 
d="M277 129q0 -64 -34.5 -100.5t-88.5 -36.5q-55 0 -90 36.5t-35 100.5v220q0 63 35 100.5t90 37.5q54 0 88.5 -37.5t34.5 -100.5v-220zM191 366q0 19 -10 31t-27 12q-18 0 -27.5 -12t-9.5 -31v-254q0 -19 9.5 -30.5t27.5 -11.5q17 0 27 11.5t10 30.5v254zM263 619
q0 -34 -15.5 -54t-47.5 -20q-15 0 -28.5 7t-26 15.5l-23 15.5t-18.5 7q-17 0 -17 -20v-23h-36q-11 15 -11 37q0 34 15 53.5t46 19.5q15 0 29 -7t26.5 -15l23 -15t18.5 -7q18 0 18 20v24h36q11 -19 11 -38z" />
    <glyph glyph-name="odieresis" unicode="&#xf6;" 
d="M277 129q0 -64 -34.5 -100.5t-88.5 -36.5q-55 0 -90 36.5t-35 100.5v220q0 63 35 100.5t90 37.5q54 0 88.5 -37.5t34.5 -100.5v-220zM191 366q0 19 -10 31t-27 12q-18 0 -27.5 -12t-9.5 -31v-254q0 -19 9.5 -30.5t27.5 -11.5q17 0 27 11.5t10 30.5v254zM175 552v93h70
v-93h-70zM63 552v93h69v-93h-69z" />
    <glyph glyph-name="oslash" unicode="&#xf8;" 
d="M305 476l-11 -20q-6 -10 -12.5 -22.5t-14.5 -26.5q10 -24 10 -58v-220q0 -64 -34.5 -100.5t-88.5 -36.5q-56 0 -92 38l-28 -52l-31 25l36 66q-10 26 -10 60v220q0 63 35 100.5t90 37.5q28 0 51 -10.5t40 -29.5l11.5 20.5l9.5 16.5q4 9 8 16zM191 366q0 19 -10 31t-27 12
q-18 0 -27.5 -12t-9.5 -31v-154l37 68l15.5 28.5t10.5 19l8 14l3 5.5v19zM191 266l-11.5 -21l-25.5 -46l-37 -68v-19q0 -19 9.5 -30.5t27.5 -11.5q17 0 27 11.5t10 30.5v154z" />
    <glyph glyph-name="ugrave" unicode="&#xf9;" horiz-adv-x="321" 
d="M209 0l-5 58q-12 -33 -35 -49.5t-50 -16.5q-42 0 -64 28.5t-22 76.5v383h89v-369q0 -19 10 -30.5t25 -11.5q19 0 29.5 18.5t10.5 35.5v357h89v-480h-77zM134 535l-70 132h86l35 -132h-51z" />
    <glyph glyph-name="uacute" unicode="&#xfa;" horiz-adv-x="321" 
d="M209 0l-5 58q-12 -33 -35 -49.5t-50 -16.5q-42 0 -64 28.5t-22 76.5v383h89v-369q0 -19 10 -30.5t25 -11.5q19 0 29.5 18.5t10.5 35.5v357h89v-480h-77zM185 535h-51l35 132h86z" />
    <glyph glyph-name="ucircumflex" unicode="&#xfb;" horiz-adv-x="321" 
d="M209 0l-5 58q-12 -33 -35 -49.5t-50 -16.5q-42 0 -64 28.5t-22 76.5v383h89v-369q0 -19 10 -30.5t25 -11.5q19 0 29.5 18.5t10.5 35.5v357h89v-480h-77zM273 544q-10 -4 -20.5 -5.5t-18.5 -1.5q-27 0 -46.5 17.5t-27.5 53.5q-8 -36 -28 -53.5t-47 -17.5q-17 0 -34 7v25
q23 0 44.5 22.5t32.5 70.5h66q11 -48 33.5 -70.5t45.5 -22.5v-25z" />
    <glyph glyph-name="udieresis" unicode="&#xfc;" horiz-adv-x="321" 
d="M209 0l-5 58q-12 -33 -35 -49.5t-50 -16.5q-42 0 -64 28.5t-22 76.5v383h89v-369q0 -19 10 -30.5t25 -11.5q19 0 29.5 18.5t10.5 35.5v357h89v-480h-77zM182 552v93h70v-93h-70zM70 552v93h69v-93h-69z" />
    <glyph glyph-name="yacute" unicode="&#xfd;" horiz-adv-x="279" 
d="M175 -29q-7 -34 -15 -59.5t-21.5 -43t-34.5 -26t-54 -8.5h-22v74h18q23 0 31.5 10.5t13.5 33.5l8 55l-92 473h87l36 -236l12 -96l11 96l35 236h84zM167 535h-51l35 132h86z" />
    <glyph glyph-name="thorn" unicode="&#xfe;" horiz-adv-x="314" 
d="M285 101q0 -46 -24.5 -77t-60.5 -31q-26 0 -43.5 10t-33.5 32v-198h-89v829h89v-220q16 22 33.5 32.5t43.5 10.5q36 0 60.5 -31.5t24.5 -77.5v-279zM198 362q0 23 -10 35t-27 12t-27.5 -12.5t-10.5 -33.5v-246q0 -20 10.5 -32.5t27.5 -12.5t27 12t10 35v243z" />
    <glyph glyph-name="ydieresis" unicode="&#xff;" horiz-adv-x="279" 
d="M175 -29q-7 -34 -15 -59.5t-21.5 -43t-34.5 -26t-54 -8.5h-22v74h18q23 0 31.5 10.5t13.5 33.5l8 55l-92 473h87l36 -236l12 -96l11 96l35 236h84zM164 552v93h70v-93h-70zM52 552v93h69v-93h-69z" />
    <glyph glyph-name="dotlessi" unicode="&#x131;" horiz-adv-x="158" 
d="M34 0v480h89v-480h-89z" />
    <glyph glyph-name="Lslash" unicode="&#x141;" horiz-adv-x="334" 
d="M183 96h154v-96h-260v244l-62 -52l-22 38l84 78v358h106v-262l59 54l22 -38l-81 -80v-244z" />
    <glyph glyph-name="lslash" unicode="&#x142;" horiz-adv-x="212" 
d="M151 353v-353h-90v243l-50 -62l-29 34l79 101v350h90v-239l50 62l29 -35z" />
    <glyph glyph-name="OE" unicode="&#x152;" horiz-adv-x="526" 
d="M187 0q-73 0 -114 40.5t-41 118.5v344q0 78 41 120.5t114 42.5h319v-94h-160v-183h111v-88h-111v-204h160v-97h-319zM240 572h-46q-56 0 -56 -67v-345q0 -66 56 -66h46v478z" />
    <glyph glyph-name="oe" unicode="&#x153;" horiz-adv-x="465" 
d="M439 127q0 -61 -30 -98t-81 -37q-61 0 -91 47q-14 -23 -38.5 -35t-53.5 -12q-50 0 -83 36.5t-33 100.5v220q0 63 33 100.5t83 37.5q29 0 53.5 -12.5t38.5 -35.5q14 23 38 35.5t53 12.5q51 0 81 -37.5t30 -98.5v-123h-156v-112q0 -20 9 -32.5t29 -12.5t29 12.5t9 32.5v57
h80v-46zM358 363q0 20 -9.5 32.5t-27.5 12.5q-19 0 -28.5 -12.5t-9.5 -32.5v-84h75v84zM190 364q0 20 -10 32t-27 12t-27 -12t-10 -32v-250q0 -19 10 -30.5t27 -11.5t27 11.5t10 30.5v250z" />
    <glyph glyph-name="Scaron" unicode="&#x160;" horiz-adv-x="353" 
d="M332 152q0 -40 -12 -70.5t-33 -51.5t-49.5 -31.5t-61.5 -10.5q-72 0 -114 41t-42 112v59h97v-57q0 -32 14 -49t42 -17q29 0 42.5 16t13.5 44q0 44 -21.5 79.5t-63.5 80.5q-21 21 -42 45.5t-38 52.5t-28 58t-11 62q0 34 9.5 63.5t29 51.5t48.5 35t68 13q67 0 107 -42
t40 -111v-60h-96v60q0 28 -12.5 45t-38.5 17q-23 0 -37.5 -14t-14.5 -40q0 -24 5.5 -43.5t17 -37.5t28.5 -37.5l40 -44.5q49 -51 81 -103t32 -115zM289 797q-23 0 -45 -22t-33 -70h-67q-11 48 -32.5 70t-44.5 22v26q9 4 19.5 5.5t18.5 1.5q28 0 47.5 -17.5t27.5 -54.5
q8 37 27.5 54.5t46.5 17.5q18 0 35 -7v-26z" />
    <glyph glyph-name="scaron" unicode="&#x161;" horiz-adv-x="282" 
d="M264 121q0 -53 -30.5 -91t-89.5 -38q-60 0 -91.5 35t-31.5 95v29h77v-36q0 -48 42 -48t42 42q0 17 -4 29t-13 24t-23 25l-34 31q-35 26 -59 60.5t-24 82.5q0 60 33.5 93t84.5 33q58 0 87.5 -35t29.5 -91v-30h-74v37q0 19 -10.5 30t-30.5 11q-18 0 -27.5 -10.5t-9.5 -27.5
q0 -26 15 -46t48 -49q38 -29 65.5 -64t27.5 -91zM253 631q-23 0 -45 -22t-33 -70h-67q-11 48 -32.5 70t-44.5 22v26q9 4 19.5 5.5t18.5 1.5q28 0 47.5 -17.5t27.5 -54.5q8 37 27.5 54.5t46.5 17.5q18 0 35 -7v-26z" />
    <glyph glyph-name="Ydieresis" unicode="&#x178;" horiz-adv-x="349" 
d="M225 268v-268h-106v268l-120 398h108l71 -279l69 279h105zM198 718v93h70v-93h-70zM86 718v93h69v-93h-69z" />
    <glyph glyph-name="Zcaron" unicode="&#x17d;" horiz-adv-x="328" 
d="M135 96h171v-96h-295v37l181 534h-170v95h292v-37zM278 797q-23 0 -45 -22t-33 -70h-67q-11 48 -32.5 70t-44.5 22v26q9 4 19.5 5.5t18.5 1.5q28 0 47.5 -17.5t27.5 -54.5q8 37 27.5 54.5t46.5 17.5q18 0 35 -7v-26z" />
    <glyph glyph-name="zcaron" unicode="&#x17e;" horiz-adv-x="258" 
d="M112 84h125v-84h-223v41l132 358h-123v81h219v-41zM244 631q-23 0 -45 -22t-33 -70h-67q-11 48 -32.5 70t-44.5 22v26q9 4 19.5 5.5t18.5 1.5q28 0 47.5 -17.5t27.5 -54.5q8 37 27.5 54.5t46.5 17.5q18 0 35 -7v-26z" />
    <glyph glyph-name="florin" unicode="&#x192;" horiz-adv-x="264" 
d="M243 387v-74h-62v-187q0 -67 -28.5 -105t-94.5 -38h-23v73h11q24 0 32 11t8 34v212h-61v74h61v136q0 68 28.5 105.5t94.5 37.5h23v-73h-11q-24 0 -32 -11t-8 -34v-161h62z" />
    <glyph glyph-name="circumflex" unicode="&#x2c6;" horiz-adv-x="241" 
d="M232 544q-10 -4 -20.5 -5.5t-18.5 -1.5q-27 0 -46.5 17.5t-27.5 53.5q-8 -36 -28 -53.5t-47 -17.5q-17 0 -34 7v25q23 0 44.5 22.5t32.5 70.5h66q11 -48 33.5 -70.5t45.5 -22.5v-25z" />
    <glyph glyph-name="caron" unicode="&#x2c7;" horiz-adv-x="241" 
d="M232 631q-23 0 -45 -22t-33 -70h-67q-11 48 -32.5 70t-44.5 22v26q9 4 19.5 5.5t18.5 1.5q28 0 47.5 -17.5t27.5 -54.5q8 37 27.5 54.5t46.5 17.5q18 0 35 -7v-26z" />
    <glyph glyph-name="breve" unicode="&#x2d8;" horiz-adv-x="209" 
d="M199 615q0 -33 -27 -55t-68 -22t-67.5 22t-26.5 55q0 21 8 39h42v-13q0 -20 10 -33.5t34 -13.5t34.5 13.5t10.5 33.5v13h41q9 -16 9 -39z" />
    <glyph glyph-name="dotaccent" unicode="&#x2d9;" horiz-adv-x="203" 
d="M67 552v93h69v-93h-69z" />
    <glyph glyph-name="ring" unicode="&#x2da;" horiz-adv-x="155" 
d="M146 609q0 -29 -19 -50.5t-49 -21.5t-49 21.5t-19 50.5t19 51t49 22t49 -22t19 -51zM112 609q0 41 -34 41q-33 0 -33 -41q0 -19 8.5 -30t24.5 -11t25 11t9 30z" />
    <glyph glyph-name="ogonek" unicode="&#x2db;" horiz-adv-x="155" 
d="M145 -151q-13 -10 -51 -10t-60 20t-22 54q0 35 25 64t81 48l9 -11q-29 -20 -44 -41.5t-15 -47.5q0 -20 13.5 -33.5t44.5 -13.5h19v-29z" />
    <glyph glyph-name="tilde" unicode="&#x2dc;" horiz-adv-x="242" 
d="M233 619q0 -34 -15.5 -54t-47.5 -20q-15 0 -28.5 7t-26 15.5l-23 15.5t-18.5 7q-17 0 -17 -20v-23h-36q-11 15 -11 37q0 34 15 53.5t46 19.5q15 0 29 -7t26.5 -15l23 -15t18.5 -7q18 0 18 20v24h36q11 -19 11 -38z" />
    <glyph glyph-name="hungarumlaut" unicode="&#x2dd;" horiz-adv-x="217" 
d="M158 535h-49l43 132h69zM64 535h-48l30 132h68z" />
    <glyph glyph-name="pi" unicode="&#x3c0;" horiz-adv-x="611" 
d="M592 319q0 -60 -22 -112.5t-60 -91.5t-90.5 -61.5t-114.5 -22.5q-61 0 -113.5 22.5t-91 61.5t-60 91.5t-21.5 112.5t21.5 112.5t60 91.5t91 62t113.5 23q62 0 114.5 -23t90.5 -62t60 -91.5t22 -112.5zM547 319q0 51 -17.5 96t-49.5 78.5t-76.5 53t-98.5 19.5
q-53 0 -97.5 -19.5t-76.5 -53t-49.5 -78.5t-17.5 -96t17.5 -96t49.5 -78.5t76.5 -53t97.5 -19.5q54 0 98.5 19.5t76.5 53t49.5 78.5t17.5 96zM411 359q0 -29 -17 -49.5t-60 -20.5h-55v-99h-49v262h104q43 0 60 -19t17 -48v-26zM361 385q0 14 -7 22t-25 8h-50v-87h50
q18 0 25 8.5t7 21.5v27z" />
    <glyph glyph-name="endash" unicode="&#x2013;" horiz-adv-x="450" 
d="M63 271v75h325v-75h-325z" />
    <glyph glyph-name="emdash" unicode="&#x2014;" horiz-adv-x="675" 
d="M63 271v75h550v-75h-550z" />
    <glyph glyph-name="quoteleft" unicode="&#x2018;" horiz-adv-x="138" 
d="M27 569q0 42 22.5 70t66.5 28v-26q-20 0 -32 -14.5t-12 -45.5h39v-118h-84v106z" />
    <glyph glyph-name="quoteright" unicode="&#x2019;" horiz-adv-x="138" 
d="M111 560q0 -42 -22.5 -70t-66.5 -28v26q20 0 32 14.5t12 45.5h-39v118h84v-106z" />
    <glyph glyph-name="quotesinglbase" unicode="&#x201a;" horiz-adv-x="138" 
d="M111 11q0 -42 -22.5 -69.5t-66.5 -27.5v26q20 0 32 14.5t12 45.5h-39v118h84v-107z" />
    <glyph glyph-name="quotedblleft" unicode="&#x201c;" horiz-adv-x="249" 
d="M138 569q0 42 22.5 70t66.5 28v-26q-20 0 -32 -14.5t-12 -45.5h38v-118h-83v106zM27 569q0 42 22.5 70t66.5 28v-26q-20 0 -32 -14.5t-12 -45.5h39v-118h-84v106z" />
    <glyph glyph-name="quotedblright" unicode="&#x201d;" horiz-adv-x="249" 
d="M221 560q0 -42 -22 -70t-67 -28v26q20 0 32.5 14.5t12.5 45.5h-39v118h83v-106zM111 560q0 -42 -22.5 -70t-66.5 -28v26q20 0 32 14.5t12 45.5h-39v118h84v-106z" />
    <glyph glyph-name="quotedblbase" unicode="&#x201e;" horiz-adv-x="249" 
d="M221 11q0 -42 -22 -69.5t-67 -27.5v26q20 0 32.5 14.5t12.5 45.5h-39v118h83v-107zM111 11q0 -42 -22.5 -69.5t-66.5 -27.5v26q20 0 32 14.5t12 45.5h-39v118h84v-107z" />
    <glyph glyph-name="dagger" unicode="&#x2020;" horiz-adv-x="322" 
d="M312 430q0 -6 -4 -8.5t-8 -2.5q-6 0 -21.5 0.5t-33 2t-35 3.5t-28.5 5q3 -11 5 -37.5t3.5 -55t2 -53t0.5 -30.5q0 -43 -0.5 -91t-1.5 -92t-3 -79t-4 -52q0 -4 -2 -8t-8 -4h-26q-6 0 -8.5 4t-2.5 8q-1 17 -2.5 52t-2.5 79t-1.5 92t-0.5 91q0 6 0.5 30.5t2 53l3 55
t4.5 37.5q-11 -3 -28.5 -5t-35 -3.5t-33 -2t-21.5 -0.5q-4 0 -8 2.5t-4 8.5v40q0 5 4 7t8 2q8 0 23 -0.5t32 -1.5t34 -2.5t29 -4.5q-3 11 -5 38.5t-3 57.5t-1.5 56t-0.5 32q0 4 2.5 8t7.5 4h42q6 0 8.5 -4t2.5 -8q0 -6 -0.5 -32t-2 -56l-3 -57.5t-4.5 -38.5q11 3 28 4.5
t34.5 2.5t32.5 1.5t22 0.5q4 0 8 -2t4 -7v-40z" />
    <glyph glyph-name="daggerdbl" unicode="&#x2021;" horiz-adv-x="322" 
d="M312 120q0 -6 -4 -8t-8 -2q-7 0 -22 0.5t-32.5 1.5t-34.5 3t-28 5q3 -11 4.5 -38.5t3 -58t2 -56t0.5 -31.5q0 -4 -2.5 -8t-8.5 -4h-42q-5 0 -7.5 4t-2.5 8q0 6 0.5 31.5t1.5 56t3 58t5 38.5q-12 -3 -29 -5t-34 -3t-32 -1.5t-23 -0.5q-4 0 -8 2t-4 8v40q0 5 4 7.5t8 2.5
q6 0 21.5 -0.5t33 -2l35 -3t28.5 -4.5q-3 11 -4.5 30.5l-3 40.5t-2 38.5t-0.5 23.5t0.5 23.5t2 38l3 40t4.5 30.5q-11 -3 -28.5 -5t-35 -3.5t-33 -2t-21.5 -0.5q-4 0 -8 2.5t-4 8.5v40q0 5 4 7.5t8 2.5q8 0 23 -0.5t32 -1.5t34 -3t29 -5q-3 11 -5 38.5t-3 58t-1.5 56
t-0.5 31.5q0 5 2.5 9t7.5 4h42q6 0 8.5 -4t2.5 -9q0 -6 -0.5 -31.5t-2 -56t-3 -58t-4.5 -38.5q11 3 28 5t34.5 3t32.5 1.5t22 0.5q4 0 8 -2.5t4 -7.5v-40q0 -6 -4 -8.5t-8 -2.5q-6 0 -21.5 0.5t-33 2t-35 3.5t-28.5 5q3 -11 5 -30.5t3.5 -40t2 -38t0.5 -23.5t-0.5 -23.5
t-2 -38.5t-3.5 -40.5t-5 -30.5q11 3 28.5 4.5l35 3t33 2t21.5 0.5q4 0 8 -2.5t4 -7.5v-40z" />
    <glyph glyph-name="bullet" unicode="&#x2022;" horiz-adv-x="247" 
d="M227 333q0 -50 -29.5 -77.5t-73.5 -27.5q-45 0 -74.5 27.5t-29.5 77.5q0 49 29.5 76.5t74.5 27.5q44 0 73.5 -27.5t29.5 -76.5z" />
    <glyph glyph-name="ellipsis" unicode="&#x2026;" horiz-adv-x="432" 
d="M316 0v118h84v-118h-84zM174 0v118h84v-118h-84zM32 0v118h83v-118h-83z" />
    <glyph glyph-name="perthousand" unicode="&#x2030;" horiz-adv-x="708" 
d="M202 432q0 -45 -25.5 -69.5t-63.5 -24.5t-63 24.5t-25 69.5v152q0 45 25 69.5t63 24.5t63.5 -24.5t25.5 -69.5v-152zM82 -20l-36 26l370 679l36 -27zM688 80q0 -45 -25 -69.5t-63 -24.5t-63 24.5t-25 69.5v153q0 45 25 69t63 24t63 -24t25 -69v-153zM472 80
q0 -45 -25 -69.5t-63 -24.5t-63 24.5t-25 69.5v153q0 45 25 69t63 24t63 -24t25 -69v-153zM143 597q0 13 -8 21.5t-22 8.5q-12 0 -20 -8.5t-8 -21.5v-178q0 -13 8 -21.5t20 -8.5q14 0 22 8.5t8 21.5v178zM629 246q0 13 -8 21t-21 8t-21 -8t-8 -21v-179q0 -13 8 -21t21 -8
t21 8t8 21v179zM414 246q0 13 -8.5 21t-21.5 8t-21 -8t-8 -21v-179q0 -13 8 -21t21 -8t21.5 8t8.5 21v179z" />
    <glyph glyph-name="guilsinglleft" unicode="&#x2039;" horiz-adv-x="206" 
d="M138 0q-11 58 -40.5 100t-77.5 62v63q48 20 77.5 62t40.5 100h42q0 -63 -19 -114t-54 -80q35 -29 54 -79t19 -114h-42z" />
    <glyph glyph-name="guilsinglright" unicode="&#x203a;" horiz-adv-x="206" 
d="M185 162q-47 -20 -77 -62t-41 -100h-41q0 64 19 114t54 79q-35 29 -54 80t-19 114h41q11 -58 41 -100t77 -62v-63z" />
    <glyph glyph-name="fraction" unicode="&#x2044;" horiz-adv-x="94" 
d="M-181 -73l-40 28l498 783l40 -27z" />
    <glyph glyph-name="trademark" unicode="&#x2122;" horiz-adv-x="487" 
d="M410 442v182l-16 -63l-37 -119h-39l-36 119l-16 63v-182h-40v224h61l37 -124l14 -59l16 59l34 124h63v-224h-41zM123 629v-187h-44v187h-63v37h170v-37h-63z" />
    <glyph glyph-name="Omega" unicode="&#x2126;" horiz-adv-x="416" 
d="M396 591q-24 0 -34 -13t-10 -37v-64h56v-78h-53v-399h-89v399h-44v78h44v46q0 69 28.5 106t92.5 37h24v-75h-15zM188 591q-24 0 -34 -13t-10 -37v-64h56v-78h-53v-399h-89v399h-44v78h44v46q0 69 28.5 106t92.5 37h24v-75h-15z" />
    <glyph glyph-name="product" unicode="&#x220f;" horiz-adv-x="364" 
d="M178 274h-34v-274h-107v666h173q57 0 93 -32t36 -102v-125q0 -40 -15.5 -68.5t-49.5 -42.5l3 -12.5t8.5 -33.5l12 -47.5t14.5 -54.5l37 -148h-102zM196 359q41 0 41 46v126q0 43 -36 43h-57v-215h52z" />
    <glyph glyph-name="radical" unicode="&#x221a;" horiz-adv-x="573" 
d="M450 0v666h89v-666h-89zM396 591q-24 0 -34 -13t-10 -37v-64h56v-78h-53v-399h-89v399h-44v78h44v46q0 69 28.5 106t92.5 37h24v-75h-15zM188 591q-24 0 -34 -13t-10 -37v-64h56v-78h-53v-399h-89v399h-44v78h44v46q0 69 28.5 106t92.5 37h24v-75h-15z" />
    <glyph glyph-name="approxequal" unicode="&#x2248;" horiz-adv-x="573" 
d="M452 541v93h85v-93h-85zM396 591q-24 0 -34 -13t-10 -37v-64h56v-78h-53v-399h-89v399h-44v78h44v46q0 69 28.5 106t92.5 37h24v-75h-15zM188 591q-24 0 -34 -13t-10 -37v-64h56v-78h-53v-399h-89v399h-44v78h44v46q0 69 28.5 106t92.5 37h24v-75h-15zM450 0v479h89v-479
h-89z" />
    <glyph glyph-name="notequal" unicode="&#x2260;" horiz-adv-x="507" 
d="M24 0v480h459v-480h-459z" />
    <glyph glyph-name="lessequal" unicode="&#x2264;" horiz-adv-x="345" 
d="M47 232v13l244 112v-237z" />
    <glyph glyph-name="greaterequal" unicode="&#x2265;" horiz-adv-x="345" 
d="M59 120v237l244 -112v-13z" />
    <glyph glyph-name="fi" unicode="&#xfb01;" horiz-adv-x="366" 
d="M245 541v93h84v-93h-84zM148 399v-399h-90v399h-44v78h44v46q0 68 28.5 105.5t92.5 37.5h24v-75h-14q-25 0 -34.5 -13t-9.5 -37v-64h55v-78h-52zM242 0v480h90v-480h-90z" />
    <glyph glyph-name="fl" unicode="&#xfb02;" horiz-adv-x="366" 
d="M242 0v666h90v-666h-90zM148 399v-399h-90v399h-44v78h44v46q0 68 28.5 105.5t92.5 37.5h24v-75h-14q-25 0 -34.5 -13t-9.5 -37v-64h55v-78h-52z" />
    <glyph glyph-name="apple" horiz-adv-x="967" 
d="M101 0v750h767v-750h-767zM853 -104l-3 20l-10 -21h-2l-10 21l-3 -20h-6l6 34h1l13 -26l13 26h1l6 -34h-6zM806 -87q0 -8 -4.5 -13t-12.5 -5t-12.5 5t-4.5 12q0 8 5 13t13 5q7 0 11.5 -5t4.5 -12zM757 -102q-3 -3 -10 -3q-18 0 -18 17q0 8 5 13t13 5q7 0 11 -3l-2 -5
q-3 3 -9 3q-5 0 -8.5 -3.5t-3.5 -8.5q0 -13 13 -13q4 0 10 4zM689 -90v-14h-6v14l-14 19l6 1l11 -15l9 14h7zM650 -104v15h-16v-15h-6v33h6v-13h16v13h6v-33h-6zM612 -82q0 -12 -17 -12v-10h-6v33q14 2 18.5 -2t4.5 -9zM570 -104l-4 8h-14l-3 -8h-6l15 34h2l16 -34h-6z
M527 -104l-8 11h-5v-11h-6v33q14 2 18.5 -1.5t4.5 -8.5q0 -7 -7 -10l10 -13h-7zM491 -101q-6 -4 -13 -4q-8 0 -13 4.5t-5 12.5t5.5 13t13.5 5q6 0 12 -4l-2 -5q-4 4 -11 4q-12 0 -12 -13q0 -12 13 -12q2 0 6 2v7h-9v5h15v-15zM447 -87q0 -8 -4.5 -13t-12.5 -5t-12.5 5
t-4.5 12q0 8 5 13t13 5q7 0 11.5 -5t4.5 -12zM400 -82q0 -12 -17 -12v-10h-6v33q14 2 18.5 -2t4.5 -9zM351 -90v-14h-6v14l-14 19l6 1l11 -15l9 14h7zM323 -76h-12v-28h-6v28h-12v5h30v-5zM255 -105h-1l-11 23l-10 -23h-1l-12 34l6 1l7 -23l10 23h1l10 -23l7 22h6zM199 -105
h-1l-11 23l-10 -23h-1l-12 34l6 1l7 -23l10 23h1l10 -23l7 22h6zM143 -105h-1l-11 23l-10 -23h-1l-12 34l6 1l7 -23l10 23h1l10 -23l7 22h6zM716 -101q0 -4 -4 -4t-4 4t4 4t4 -4zM284 -101q0 -4 -4 -4t-4 4t4 4t4 -4zM559 686v5q0 5 -1 7q-2 -1 -17 -1t-18 1v-7q-1 -3 -1 -5
h2q1 3 3 5q3 4 7 4q3 0 3 -3v-23q0 -4 -2 -5h-3v-2h17v2h-2q-3 1 -3 5v23q0 3 3 3q4 0 8 -4q1 -2 2 -5h2zM504 664h-3q-3 1 -3 5v21q0 4 3 5h3v2h-18v-1v-1h3q2 -1 2 -5v-9h-17v9q0 4 3 5h2v1v1h-17v-2h3q2 -1 2 -5v-21q0 -3 -2 -4t-3 -1v-2h17v2q-1 0 -2 1q-3 1 -3 4v10h17
v-10q0 -4 -2 -5h-3v-2h18v2zM439 664h-2q-3 1 -3 5v21q0 4 3 5h2v2h-29l-2 -10l2 -1l2 4q3 4 7 4h4q4 0 4 -3v-10h-4q-4 0 -5 3q-1 1 -1 2h-2v-13h2q0 2 1 3q1 3 5 3h4v-11q0 -3 -4 -3h-4q-4 0 -8 5q-1 1 -2 4l-2 -1l2 -11h30v2zM827 624h-685v-6h685v6zM696 540
q0 15 -11.5 26.5t-25.5 11.5q-7 0 -15 -5t-8 -17q0 -16 11.5 -27t25.5 -11q7 0 15 5t8 17zM589 537q0 12 -14 17q5 3 5 9q0 5 -5 10t-16 5q-13 0 -13 -11q0 -6 5 -6q4 0 4 3t-1.5 3.5t-1.5 2.5q0 5 7 5q10 0 10 -12q0 -4 -2 -6q-16 2 -16 -6q0 -6 8 -6q6 0 11 5q6 -4 6 -15
q0 -14 -12 -14t-12 9q0 3 3 3q1 0 2 -1t3 -1q4 0 4 5t-7 5q-9 0 -9 -10q0 -13 16 -13q13 0 19 5.5t6 13.5zM295 537q0 12 -14 17q5 3 5 9q0 5 -5 10t-16 5q-13 0 -13 -11q0 -6 5 -6q4 0 4 3t-1.5 3.5t-1.5 2.5q0 5 7 5q10 0 10 -12q0 -4 -2 -6q-16 2 -16 -6q0 -6 8 -6
q6 0 11 5q6 -4 6 -15q0 -14 -12 -14t-12 9q0 3 3 3q1 0 2 -1t3 -1q4 0 4 5t-7 5q-9 0 -9 -10q0 -13 16 -13q13 0 19 5.5t6 13.5zM820 522q-2 0 -4 1q-5 2 -6 7l-7 35q-1 6 3 7q2 1 4 1l-1 3h-28l1 -3q2 0 4 -1q4 -2 5 -7l3 -15h-24l-3 15q-1 6 3 7q2 1 4 1l-1 3h-29l1 -3
q2 0 4 -1q5 -2 6 -7l7 -35q1 -6 -3 -7q-2 -1 -4 -1l1 -3h29l-1 3q-2 0 -4 1q-5 2 -6 7l-3 16h24l3 -16q1 -6 -3 -7q-2 -1 -4 -1l1 -3h29zM497 522q-2 0 -4 1q-5 2 -6 7l-7 35q-1 6 3 7q2 1 4 1l-1 3h-45q1 -2 0 -10v-7h4q0 4 1 7q4 6 12 6h4q5 0 6 -6l3 -16h-4q-6 0 -9 5
q-2 1 -3 4h-3l5 -23h3q0 3 1 6q2 5 7 5h4l3 -17q1 -6 -3 -7q-2 -1 -4 -1l1 -3h29zM202 522q-2 0 -4 1q-5 2 -6 7l-7 35q-1 6 3 7q2 1 4 1l-1 3h-27q-20 0 -20 -15q0 -6 5.5 -10t13.5 -5l-9 -16q-3 -6 -9 -7q-2 -1 -5 -1l1 -3h19l12 23q2 3 5 3l3 -15q1 -6 -3 -7q-2 -1 -4 -1
l1 -3h29zM400 521q0 2 -3 5t-10 4q-4 3 -4.5 10.5t-2 16t-6 15t-16.5 6.5q-5 0 -9 -3.5t-4 -6.5q0 -5 5 -5q4 0 4 6t5 6t6.5 -5t2.5 -12t3.5 -14.5t8.5 -13.5q-11 0 -14.5 -6.5t-8.5 -6.5t-5 4q0 2 1 2.5t1 2.5q0 5 -5 5t-5 -7q0 -5 5 -8.5t10 -3.5q14 0 15.5 6.5t9.5 6.5
q4 -7 12 -7q4 0 4 3zM827 481h-685v-6h685v6zM827 440h-147v-62h36v28h11v-65h-14v-33h81v33h-14v65h11v-28h36v62zM648 440h-81v-34h11l-15 -23l-15 23h10v34h-62v-34h12l37 -46v-19h-14v-33h81v33h-15v20l37 45h14v34zM458 341h-14v65h14v34h-96q-22 0 -34.5 -11.5
t-12.5 -28.5t12.5 -28.5t34.5 -11.5h30v-19h-15v-33h81v33zM283 341h-14v65h14v34h-141v-62h41v28h33v-20h-24v-24h24v-21h-33v28h-41v-61h141v33zM827 277h-685v-6h685v6zM728 192q0 15 -11.5 26.5t-25.5 11.5q-7 0 -15 -5t-8 -17q0 -16 11.5 -27t25.5 -11q7 0 15 5t8 17z
M203 217q-3 5 -6.5 9t-11.5 4q-15 0 -14 -23q-3 10 -8 16.5t-13 6.5q-5 0 -8.5 -3t-3.5 -9l3 -1q0 6 8 6q10 0 15.5 -10.5t8.5 -22.5q3 -11 -1 -14q-2 -1 -5 -1l1 -4h28l-1 4h-4q-4 2 -6 9q-5 17 -5 25q0 13 9 13q5 0 7.5 -2.5l4.5 -4.5zM822 174q-2 0 -4 1q-5 2 -6 7l-7 35
q-1 6 3 7q2 1 4 1l-1 3h-45q1 -2 0 -10v-7h4q0 4 1 7q4 6 12 6h4q5 0 6 -6l3 -16h-4q-6 0 -9 5q-2 1 -3 4h-3l5 -23h3q0 3 1 6q2 5 7 5h4l3 -17q1 -6 -3 -7q-2 -1 -4 -1l1 -3h29zM620 228h-29l1 -3q2 0 4 -1q5 -2 6 -8l5 -21q2 -10 1 -15t-12 -5q-8 0 -13 6.5t-7 15.5l-4 19
q-1 7 3 9h4v3h-24l1 -3q3 0 5 -1q5 -2 6 -8l4 -19q2 -8 8 -17.5t20 -9.5q17 0 19 8t0 16l-5 22q-2 7 3 9h5zM522 174q-2 0 -3 1q-4 3 -6 9l-7 32q-1 6 3 8q2 1 5 1l-1 3h-14l-29 -42l-5 30q-1 6 3 8q2 1 4 1l-1 3h-21l1 -3q2 0 4 -1q4 -3 5 -8l8 -45l3 -1l30 44l6 -30
q1 -7 -2 -9q-2 -1 -4 -1l1 -3h21zM413 175h-4q-4 2 -6 9l-8 31q-3 9 8 10l-1 3h-30q-9 0 -17 -5.5t-8 -16.5q0 -16 11 -25.5t24 -9.5h32zM306 174q-2 0 -4 1q-5 2 -6 7l-7 35q-1 6 3 7q2 1 4 1l-1 3h-27q-20 0 -20 -15q0 -6 5.5 -10t13.5 -5l-9 -16q-3 -6 -9 -7q-2 -1 -5 -1
l1 -3h19l12 23q2 3 5 3l3 -15q1 -6 -3 -7q-2 -1 -4 -1l1 -3h29zM827 133h-685v-6h685v6zM694 48q-2 0 -3 1q-3 2 -3 4v20q0 2 3 4q1 1 3 2v2h-10l-24 -26v18q0 3 3 5q1 1 3 1v2h-15v-2q2 0 3 -1q3 -2 3 -5v-28h3l25 28v-20q0 -2 -2 -4q-2 -1 -3 -1v-2h14v2zM633 48h-2
q-3 1 -3 5v21q0 4 3 5h2v2h-29l-2 -10l2 -1l2 4q3 4 7 4h4q4 0 4 -3v-10h-4q-4 0 -5 3q-1 1 -1 2h-2v-13h2q0 2 1 3q1 3 5 3h4v-11q0 -3 -4 -3h-4q-4 0 -8 5q-1 1 -2 4l-2 -1l2 -11h30v2zM568 81v-2q1 0 2 -1q1 -2 0 -4l-9 -19l-5 10l4 8q1 3 4 5q1 0 2 1v2h-26l1 -2
q1 0 2 -1q3 -1 5 -5l3 -5l-7 -13l-8 18q-1 3 0 5q1 1 2 1v2h-13v-2q1 0 2 -1q3 -2 4 -5l13 -27h1q1 -1 1 0l8 16l9 -16h1l12 27q2 4 5 5q1 1 2 1v2h-15zM480 81h-15v-2q1 0 2 -1t-1 -4l-6 -9l-6 9q-2 3 0 4q1 1 3 1v2h-15v-2q1 0 3 -1q3 -1 5 -4l8 -12v-8q0 -4 -2 -5t-3 -1
v-2h17v2q-1 0 -2 1q-3 1 -3 5v8l8 12q2 3 5 4q1 1 2 1v2zM425 64q0 8 -5 13t-15 5t-15 -5t-5 -13t5 -13.5t15 -5.5t15 5.5t5 13.5zM364 48q-1 0 -2 1q-3 1 -3 4v20q0 4 3 5q1 1 2 1v2h-18q-13 0 -13 -9q0 -5 9 -9l-7 -10q-2 -3 -5 -4q-2 -1 -3 -1v-2h11l7 12q3 4 7 4v-9
q0 -3 -2 -4t-3 -1v-2h17v2zM309 48q-2 0 -3 1q-3 2 -3 5v20q0 3 3 4q1 1 3 1v2h-18v-2q2 0 3 -1q3 -1 3 -4v-9q-2 0 -4 2l-8 8q-2 2 -1 3t2 1v2h-14v-2q1 0 3 -1q3 -1 5 -3l10 -9l-13 -13q-1 -1 -4 -3q-2 -1 -3 -2v-2h17v2q-2 0 -2 1q-2 1 0 4l8 8q2 2 4 2v-9q0 -4 -3 -5
q-1 -1 -3 -1v-2h18v2zM606 -83q0 8 -11 7v-13q11 0 11 6zM525 -82q0 8 -11 6v-12q11 -1 11 6zM394 -83q0 8 -11 7v-13q11 0 11 6zM559 -80l-5 -12h10zM800 -88q0 13 -11 13t-11 -12q0 -13 11 -13t11 12zM441 -88q0 13 -11 13t-11 -12q0 -13 11 -13t11 12zM171 548
q-8 0 -11.5 5t-3.5 10q0 9 8 9t9 -5l3 -19h-5zM566 553q-3 -4 -7 -4t-4 2q0 3 4 3q5 0 7 -1zM272 553q-3 -4 -7 -4t-4 2q0 3 4 3q5 0 7 -1zM684 535q0 -13 -11 -13q-9 0 -17 11.5t-8 26.5q0 14 11 14q9 0 17 -11.5t8 -27.5zM381 384q-13 0 -13 11t13 11h11v-22h-11zM275 200
q-8 0 -11.5 5t-3.5 10q0 9 8 9t9 -5l3 -19h-5zM716 187q0 -13 -11 -13q-9 0 -17 11.5t-8 26.5q0 14 11 14q9 0 17 -11.5t8 -27.5zM393 182q0 -7 -4 -7h-5q-11 0 -18.5 10t-7.5 22q0 17 14 17h6q3 -1 3.5 -1.5t2.5 -5.5zM553 79q5 0 0 -9q-5 9 0 9zM352 64h-3q-8 0 -8 8
q0 6 7 6q4 0 4 -4v-10zM417 64q0 -7 -2.5 -12t-9.5 -5q-6 0 -9 5t-3 12q0 16 12 16t12 -16z" />
  </font>
</defs>
</svg>
